<svg width="54" height="54" viewBox="0 0 54 54" fill="none" xmlns="http://www.w3.org/2000/svg">
<rect x="3.85718" y="3.08594" width="47.25" height="47.25" rx="15" fill="white"/>
<path d="M21.7459 18.9273C21.7459 19.119 21.7459 19.3107 21.7465 19.5024C21.7471 19.9848 21.739 20.4673 21.7566 20.9497C21.7648 21.0561 21.7704 21.1636 21.7971 21.2673C21.8268 21.3865 21.8848 21.5007 21.9718 21.5887C22.0537 21.6747 22.1611 21.7318 22.2783 21.7516C22.3675 21.8088 22.4442 21.883 22.5187 21.958L22.6084 22.0492V27.8029H25.5544L25.4967 21.252C25.4373 21.1362 25.3794 21.0198 25.3233 20.9025C25.2163 20.6808 25.1097 20.4585 24.9799 20.2492C24.6867 19.7833 24.2626 19.4142 23.7607 19.1878C23.6809 19.152 23.6011 19.1178 23.5189 19.0878C23.2138 18.9756 22.8943 18.9097 22.5742 18.858C22.4667 18.8403 22.3591 18.8247 22.2514 18.8067L21.7459 18.7246V18.9273ZM15.189 19.2648L15.202 22.1458C15.2073 23.1651 15.2128 24.1842 15.2197 25.2036C15.2239 25.8327 15.2289 26.4618 15.2328 27.0913L15.2376 27.7465L15.6999 27.7579L15.7299 27.7585L15.8472 27.7618L15.8622 27.7621L15.9942 27.766C16.4121 27.7785 16.83 27.7929 17.2483 27.7954H17.2633C17.3115 27.7954 17.3601 27.7932 17.4087 27.7912C17.5204 27.7857 17.6332 27.7687 17.7369 27.7251C17.7799 27.7071 17.821 27.6849 17.8591 27.6585C17.9944 27.7368 18.1363 27.8049 18.2856 27.8518C18.3883 27.8854 18.4929 27.9132 18.5985 27.9336C18.9213 27.9966 19.2537 27.9982 19.5781 27.9496C19.8807 27.9034 20.1757 27.8173 20.4556 27.6937C20.5978 27.6328 20.7354 27.5601 20.8657 27.4767C21.2346 27.238 21.5508 26.9263 21.7948 26.5609C21.8421 26.4912 21.8874 26.4204 21.9268 26.3458C22.0318 26.1492 22.1035 25.935 22.1419 25.7157C22.2319 25.2342 22.245 24.741 22.2039 24.2536C22.1914 24.0921 22.1707 23.9313 22.1419 23.7718C22.0902 23.494 22.005 23.2203 21.8713 22.9699C21.8272 22.8892 21.78 22.8103 21.7299 22.7332C21.5187 22.4059 21.2608 22.1064 20.9541 21.8652C20.9029 21.8241 20.8497 21.7858 20.7943 21.7507C20.5525 21.5971 20.2825 21.4915 20.0061 21.4192C19.5657 21.301 19.1047 21.2806 18.6556 21.3592C18.4737 21.3921 18.2947 21.4429 18.1233 21.5124V19.0914H15.1884L15.189 19.2648ZM35.832 21.3045C35.6335 21.3076 35.4355 21.3292 35.2407 21.3664C34.8649 21.4378 34.5037 21.5709 34.1715 21.7602C33.7558 22.0026 33.4099 22.3483 33.1674 22.7638C33.0924 22.8916 33.0282 23.0253 32.9737 23.1631C32.862 23.4429 32.7886 23.7369 32.7466 24.0349C32.6586 23.6472 32.4982 23.2795 32.2738 22.9513C32.067 22.6471 31.8127 22.3779 31.5208 22.1539C30.8916 21.6756 30.1311 21.4011 29.3413 21.3673C29.2021 21.3627 29.0629 21.366 28.924 21.3771C28.2556 21.4333 27.6145 21.6687 27.0685 22.0584C26.7679 22.2729 26.5042 22.5346 26.2875 22.8336C26.08 23.1177 25.9255 23.4369 25.8312 23.7757C25.7934 23.9155 25.7676 24.0589 25.7545 24.2034C25.7317 24.4698 25.7106 24.7371 25.722 25.0044C25.7245 25.077 25.7304 25.1497 25.7418 25.2217C25.7718 25.4151 25.834 25.6018 25.9107 25.7815C25.9557 25.888 26.0055 25.9924 26.0571 26.0961C26.335 26.6035 26.7195 27.0448 27.1843 27.3895C27.4587 27.5883 27.7647 27.739 28.0896 27.8352C28.4178 27.9349 28.7601 27.9852 29.1027 27.9963C29.2357 27.9999 29.3691 27.9963 29.5017 27.9874C29.9091 27.9622 30.31 27.8724 30.6892 27.7215C30.7456 27.6993 30.8008 27.6745 30.8548 27.6471C31.0929 27.5251 31.3161 27.3759 31.5235 27.207C31.7122 27.0538 31.8876 26.8843 32.0509 26.704C32.1555 26.5876 32.2507 26.4625 32.3355 26.3304C32.5191 26.0443 32.6538 25.7298 32.7342 25.3995C32.7711 25.7329 32.8483 26.0641 32.9862 26.3709C33.0726 26.5632 33.1834 26.7454 33.3187 26.9074C33.5011 27.1243 33.7167 27.3111 33.9573 27.4609C34.2057 27.6198 34.4739 27.7452 34.7478 27.8541C34.8664 27.9004 34.9896 27.9343 35.1145 27.9577V30.6879L35.5752 30.6684L35.6214 30.6664L35.6677 30.6645L35.6827 30.6637L35.7822 30.6601C36.2112 30.6439 36.6402 30.6318 37.0684 30.6045C37.3615 30.5829 37.6533 30.5161 37.9186 30.388C37.9917 30.3522 38.0647 30.3153 38.1354 30.2749C38.4106 30.1158 38.6623 29.919 38.8833 29.6904C38.9122 29.6617 38.9389 29.6314 38.9647 29.5998C39.144 29.3872 39.3018 29.1538 39.4113 28.8972C39.4602 28.7832 39.4983 28.6642 39.5263 28.5432C39.6013 28.2286 39.6319 27.906 39.6483 27.5839C39.6568 27.4198 39.6624 27.2559 39.6682 27.0919C39.6916 26.0488 39.6852 25.0053 39.6855 23.9619C39.6855 23.7063 39.6861 23.4507 39.6858 23.1951V21.4201H36.84V21.4951C36.5202 21.3643 36.1774 21.2995 35.832 21.3045ZM29.388 24.0939C29.4216 24.0952 29.4564 24.0969 29.4877 24.1102C29.4988 24.1173 29.5075 24.1275 29.518 24.1356C29.632 24.2359 29.7403 24.3442 29.8348 24.4632C29.8476 24.486 29.8498 24.5128 29.8521 24.5382C29.8567 24.6043 29.8506 24.6702 29.8453 24.7357C29.8216 24.9051 29.7345 25.0591 29.6014 25.1667C29.5359 25.2195 29.4594 25.2586 29.3775 25.2778C29.2725 25.3072 29.1591 25.2975 29.0571 25.2603C28.9267 25.2136 28.8156 25.1251 28.7409 25.0086C28.7133 24.9633 28.6917 24.9145 28.6767 24.8635C28.6384 24.7245 28.6516 24.5763 28.7142 24.4462C28.737 24.3987 28.7659 24.3543 28.7995 24.3139C28.8576 24.2305 28.939 24.1614 29.0355 24.1275C29.0668 24.1164 29.0998 24.1111 29.1324 24.1069C29.2053 24.097 29.2788 24.0927 29.3524 24.0939C29.3641 24.0933 29.3758 24.0936 29.388 24.0939ZM36.3063 24.1003C36.3604 24.1003 36.4143 24.1078 36.4654 24.1248C36.6141 24.1731 36.7411 24.2859 36.805 24.4287C36.8256 24.471 36.8425 24.5143 36.8536 24.5601C36.8806 24.6685 36.88 24.7857 36.8425 24.8916C36.8275 24.9333 36.8064 24.973 36.7797 25.0089L36.7711 25.02C36.7015 25.1074 36.6112 25.1761 36.5085 25.2201C36.4366 25.2522 36.3612 25.2751 36.2838 25.2886C36.2326 25.2873 36.1822 25.2762 36.1351 25.2561C36.0814 25.2348 36.0288 25.2108 35.9773 25.1842C35.889 25.1254 35.8209 25.0408 35.7825 24.9418C35.7303 24.8146 35.7196 24.6744 35.7519 24.5407C35.7675 24.4779 35.7942 24.4179 35.8314 24.3648C35.9175 24.2278 36.0637 24.13 36.2238 24.1059C36.2512 24.1017 36.279 24.0997 36.3063 24.1003ZM18.7674 24.195C18.8268 24.1953 18.886 24.2064 18.9405 24.2295C19.0653 24.2817 19.1686 24.3853 19.2175 24.5118C19.2433 24.5799 19.2517 24.6535 19.2472 24.7257C19.2406 24.832 19.2043 24.9345 19.1425 25.0213C19.0741 25.0923 18.9892 25.1452 18.8955 25.1755C18.7888 25.2117 18.6745 25.2247 18.5623 25.2139C18.4749 25.201 18.3958 25.1545 18.342 25.0845C18.2727 25.0014 18.2307 24.8989 18.2217 24.7911C18.2085 24.6691 18.2334 24.5458 18.2928 24.4384C18.3303 24.3732 18.3837 24.3162 18.4495 24.2787C18.5451 24.2223 18.6565 24.1936 18.7674 24.195Z" fill="white"/>
<path d="M27.1452 41.5855C26.9985 41.4473 26.49 40.3435 25.5322 38.0923L24.1351 34.7887H19.9777C17.5714 34.7887 15.6224 34.7545 15.3551 34.7026C14.6649 34.5733 13.7333 34.0816 13.2329 33.5813C12.7243 33.0727 12.2328 32.1841 12.0945 31.5286C12.0258 31.2182 12 28.8203 12 23.8957C12 17.7199 12.0169 16.6418 12.1291 16.202C12.5431 14.6148 13.8627 13.3986 15.4499 13.1486C16.2258 13.0195 38.6597 13.0195 39.4274 13.1486C40.9712 13.3901 42.2478 14.4942 42.7048 15.9605C42.8688 16.504 42.8775 16.7539 42.8775 23.8696C42.8775 28.5011 42.8427 31.3477 42.7824 31.5889C42.5496 32.6153 41.6699 33.7537 40.7385 34.2541C39.781 34.7629 39.548 34.7887 34.9767 34.7887H30.8281L29.4311 38.0923C28.6545 39.9034 27.9648 41.4473 27.8868 41.5249C27.6284 41.7836 27.3868 41.8009 27.1452 41.5855ZM37.8747 29.8295C38.1334 29.6828 38.4699 29.4067 38.6251 29.1997C39.1339 28.5272 39.1685 28.2772 39.1685 24.9391V21.9374H37.3573V22.4809L37.1676 22.3084C36.693 21.8771 36.055 21.7304 35.3218 21.8771C33.9417 22.1617 33.2174 23.1452 33.2174 24.7321C33.2174 26.0605 33.5794 26.7245 34.5627 27.2077C35.0028 27.4231 35.227 27.4834 35.6149 27.4834C36.2359 27.475 36.7536 27.3367 37.0554 27.0955L37.2967 26.9054L37.2365 27.2852C37.1159 28.0357 36.7191 28.4066 36.0289 28.4066H35.6322V30.1486L36.5205 30.1141C37.2971 30.088 37.4522 30.0538 37.8747 29.8295ZM20.3315 27.1816C20.8232 26.9573 21.2975 26.4742 21.5217 25.9999C21.7632 25.4564 21.772 24.1714 21.5389 23.4986C21.3664 22.99 20.8404 22.3514 20.4176 22.1275C19.5381 21.6701 18.4167 21.7477 17.8046 22.3084L17.6059 22.4812V19.609H15.7087L15.7257 23.4295L15.7518 27.2419L16.6831 27.268C17.5629 27.2939 17.6059 27.2852 17.6059 27.1124C17.6059 26.8969 17.6321 26.8969 18.0288 27.1558C18.6326 27.5609 19.512 27.5695 20.3315 27.1816ZM30.4316 27.268C30.9576 27.0782 31.6734 26.4659 31.9581 25.9568C32.8982 24.3181 31.8287 22.3345 29.7932 21.9374C28.5167 21.6874 27.1365 22.3084 26.533 23.4125C26.343 23.7746 26.2741 24.0163 26.248 24.5339C26.2138 25.1116 26.2396 25.2494 26.4466 25.7153C26.6967 26.2759 27.2658 26.8885 27.7835 27.1558C28.5339 27.5437 29.5689 27.587 30.4316 27.268ZM25.0061 24.3266L24.9804 21.377L24.6958 20.7991C24.2991 19.9972 23.6693 19.5656 22.6343 19.3931L22.2636 19.3328V20.2903C22.2636 21.1094 22.2809 21.2476 22.4015 21.2476C22.4792 21.2476 22.6687 21.377 22.8328 21.541L23.1261 21.8341V27.2852H25.0319L25.0061 24.3266Z" fill="#42D31A"/>
<path d="M35.8303 25.6892C35.2611 25.4476 35.0368 24.6715 35.3733 24.1193C35.8395 23.3519 36.9259 23.4206 37.2882 24.2399C37.5555 24.8527 37.2882 25.4819 36.6414 25.7237C36.3219 25.8443 36.1665 25.8359 35.8303 25.6892ZM18.1408 25.5943C17.5026 25.1542 17.5713 24.1192 18.2614 23.7916C19.21 23.3431 20.1159 24.2833 19.6329 25.2149C19.3912 25.6892 18.5718 25.8962 18.1408 25.5943ZM28.6717 25.6462C28.5433 25.5692 28.4319 25.4669 28.3444 25.3454C28.2568 25.2239 28.195 25.0859 28.1628 24.9398C28.1305 24.7936 28.1284 24.6424 28.1566 24.4954C28.1848 24.3482 28.2427 24.2086 28.3269 24.0847C28.5768 23.714 28.8441 23.5762 29.3272 23.5762C29.6464 23.5762 29.7498 23.6192 30.0346 23.9122C30.3192 24.1972 30.3708 24.3005 30.3708 24.6196C30.3708 25.5425 29.4309 26.1116 28.6717 25.6462Z" fill="#42D31A"/>
</svg>
