<svg width="54" height="54" viewBox="0 0 54 54" fill="none" xmlns="http://www.w3.org/2000/svg">
<path d="M40.5 3.375H13.5C7.90812 3.375 3.375 7.90812 3.375 13.5V40.5C3.375 46.0919 7.90812 50.625 13.5 50.625H40.5C46.0919 50.625 50.625 46.0919 50.625 40.5V13.5C50.625 7.90812 46.0919 3.375 40.5 3.375Z" fill="url(#paint0_radial_6_84)"/>
<path d="M40.5 3.375H13.5C7.90812 3.375 3.375 7.90812 3.375 13.5V40.5C3.375 46.0919 7.90812 50.625 13.5 50.625H40.5C46.0919 50.625 50.625 46.0919 50.625 40.5V13.5C50.625 7.90812 46.0919 3.375 40.5 3.375Z" fill="url(#paint1_radial_6_84)"/>
<path d="M40.5 3.375H13.5C7.90812 3.375 3.375 7.90812 3.375 13.5V40.5C3.375 46.0919 7.90812 50.625 13.5 50.625H40.5C46.0919 50.625 50.625 46.0919 50.625 40.5V13.5C50.625 7.90812 46.0919 3.375 40.5 3.375Z" fill="url(#paint2_radial_6_84)"/>
<path d="M38.8125 17.7188C38.8125 19.1167 37.6792 20.25 36.2812 20.25C34.8833 20.25 33.75 19.1167 33.75 17.7188C33.75 16.3208 34.8833 15.1875 36.2812 15.1875C37.6792 15.1875 38.8125 16.3208 38.8125 17.7188Z" fill="white"/>
<path fill-rule="evenodd" clip-rule="evenodd" d="M27 35.4375C31.6599 35.4375 35.4375 31.6599 35.4375 27C35.4375 22.3401 31.6599 18.5625 27 18.5625C22.3401 18.5625 18.5625 22.3401 18.5625 27C18.5625 31.6599 22.3401 35.4375 27 35.4375ZM27 32.0625C29.796 32.0625 32.0625 29.796 32.0625 27C32.0625 24.204 29.796 21.9375 27 21.9375C24.204 21.9375 21.9375 24.204 21.9375 27C21.9375 29.796 24.204 32.0625 27 32.0625Z" fill="white"/>
<path fill-rule="evenodd" clip-rule="evenodd" d="M10.125 26.325C10.125 20.6545 10.125 17.8192 11.2286 15.6534C12.1993 13.7482 13.7482 12.1993 15.6534 11.2286C17.8192 10.125 20.6545 10.125 26.325 10.125H27.675C33.3455 10.125 36.1808 10.125 38.3466 11.2286C40.2518 12.1993 41.8007 13.7482 42.7714 15.6534C43.875 17.8192 43.875 20.6545 43.875 26.325V27.675C43.875 33.3455 43.875 36.1808 42.7714 38.3466C41.8007 40.2518 40.2518 41.8007 38.3466 42.7714C36.1808 43.875 33.3455 43.875 27.675 43.875H26.325C20.6545 43.875 17.8192 43.875 15.6534 42.7714C13.7482 41.8007 12.1993 40.2518 11.2286 38.3466C10.125 36.1808 10.125 33.3455 10.125 27.675V26.325ZM26.325 13.5H27.675C30.566 13.5 32.5311 13.5026 34.0502 13.6267C35.53 13.7476 36.2866 13.9667 36.8145 14.2357C38.0845 14.8829 39.1171 15.9155 39.7642 17.1855C40.0332 17.7133 40.2524 18.47 40.3733 19.9498C40.4973 21.4689 40.5 23.434 40.5 26.325V27.675C40.5 30.566 40.4973 32.5311 40.3733 34.0502C40.2524 35.53 40.0332 36.2866 39.7642 36.8145C39.1171 38.0845 38.0845 39.1171 36.8145 39.7642C36.2866 40.0332 35.53 40.2524 34.0502 40.3733C32.5311 40.4973 30.566 40.5 27.675 40.5H26.325C23.434 40.5 21.4689 40.4973 19.9498 40.3733C18.47 40.2524 17.7133 40.0332 17.1855 39.7642C15.9155 39.1171 14.8829 38.0845 14.2357 36.8145C13.9667 36.2866 13.7476 35.53 13.6267 34.0502C13.5026 32.5311 13.5 30.566 13.5 27.675V26.325C13.5 23.434 13.5026 21.4689 13.6267 19.9498C13.7476 18.47 13.9667 17.7133 14.2357 17.1855C14.8829 15.9155 15.9155 14.8829 17.1855 14.2357C17.7133 13.9667 18.47 13.7476 19.9498 13.6267C21.4689 13.5026 23.434 13.5 26.325 13.5Z" fill="white"/>
<defs>
<radialGradient id="paint0_radial_6_84" cx="0" cy="0" r="1" gradientUnits="userSpaceOnUse" gradientTransform="translate(20.25 38.8125) rotate(-55.3758) scale(43.0643)">
<stop stop-color="#B13589"/>
<stop offset="0.79309" stop-color="#C62F94"/>
<stop offset="1" stop-color="#8A3AC8"/>
</radialGradient>
<radialGradient id="paint1_radial_6_84" cx="0" cy="0" r="1" gradientUnits="userSpaceOnUse" gradientTransform="translate(18.5625 52.3125) rotate(-65.1363) scale(38.1277)">
<stop stop-color="#E0E8B7"/>
<stop offset="0.444662" stop-color="#FB8A2E"/>
<stop offset="0.71474" stop-color="#E2425C"/>
<stop offset="1" stop-color="#E2425C" stop-opacity="0"/>
</radialGradient>
<radialGradient id="paint2_radial_6_84" cx="0" cy="0" r="1" gradientUnits="userSpaceOnUse" gradientTransform="translate(0.843751 5.0625) rotate(-8.1301) scale(65.6284 14.0372)">
<stop offset="0.156701" stop-color="#406ADC"/>
<stop offset="0.467799" stop-color="#6A45BE"/>
<stop offset="1" stop-color="#6A45BE" stop-opacity="0"/>
</radialGradient>
</defs>
</svg>
