<svg width="1920" height="954" viewBox="0 0 1920 954" fill="none" xmlns="http://www.w3.org/2000/svg">
<path d="M-164 935.5C-124.333 904.833 -10.7 843.5 126.5 843.5C298 843.5 617.5 943 664 943C710.5 943 747 960 862 943C977 926 1165 861 1198 659.5C1231 458 1134 271.5 1124 230.5C1114 189.5 1087 98.5 1187 30.5C1287 -37.5 1352.5 -34 1397.5 -90" stroke="black" stroke-opacity="0.5" stroke-width="5"/>
<path d="M1397 -89.5C1366.5 -54.1667 1300.9 35.3 1282.5 110.5C1259.5 204.5 1250.5 221.5 1257 306C1263.5 390.5 1315.5 474.5 1404.5 488.5C1493.5 502.5 1581 423 1545 357.5C1509 292 1384.5 350 1360.5 461C1336.5 572 1414 692 1552 737.5C1690 783 1865.5 749 1929 722C1992.5 703.5 2053.5 661.5 2117 620C2167.4 583.6 2207.67 534.5 2221.5 514.5" stroke="black" stroke-opacity="0.5" stroke-width="5"/>
</svg>
