<svg width="70" height="60" viewBox="0 0 70 60" fill="none" xmlns="http://www.w3.org/2000/svg">
<path d="M0.24 30.08C0.24 20.8533 1.89333 13.6267 5.2 8.4C8.56 3.17333 14.1067 0.559998 21.84 0.559998C29.5733 0.559998 35.0933 3.17333 38.4 8.4C41.76 13.6267 43.44 20.8533 43.44 30.08C43.44 39.36 41.76 46.64 38.4 51.92C35.0933 57.2 29.5733 59.84 21.84 59.84C14.1067 59.84 8.56 57.2 5.2 51.92C1.89333 46.64 0.24 39.36 0.24 30.08ZM32.4 30.08C32.4 26.1333 32.1333 22.8267 31.6 20.16C31.12 17.44 30.1067 15.2267 28.56 13.52C27.0667 11.8133 24.8267 10.96 21.84 10.96C18.8533 10.96 16.5867 11.8133 15.04 13.52C13.5467 15.2267 12.5333 17.44 12 20.16C11.52 22.8267 11.28 26.1333 11.28 30.08C11.28 34.1333 11.52 37.5467 12 40.32C12.48 43.04 13.4933 45.2533 15.04 46.96C16.5867 48.6133 18.8533 49.44 21.84 49.44C24.8267 49.44 27.0933 48.6133 28.64 46.96C30.1867 45.2533 31.2 43.04 31.68 40.32C32.16 37.5467 32.4 34.1333 32.4 30.08ZM50.5988 12V1.68H69.8788V60H58.3588V12H50.5988Z" fill="#FFC0CB" fill-opacity="0.3"/>
</svg>
