<svg width="84" height="84" viewBox="0 0 84 84" fill="none" xmlns="http://www.w3.org/2000/svg">
<g clip-path="url(#clip0_17_1335)">
<path d="M15.4008 71.4C15.7593 71.4 16.1161 71.2629 16.3906 70.9899C16.9366 70.4424 16.9366 69.5563 16.3906 69.0103L5.1121 57.7376C5.01694 57.655 2.80062 55.6781 2.80062 51.8001V30.8001C2.80062 29.256 4.05636 28.0001 5.60068 28.0001C7.14483 28.0001 8.40073 29.2558 8.40073 30.8001V41.8826C8.40073 42.6568 9.02647 43.2825 9.80068 43.2825C10.5734 43.2825 11.2006 42.6568 11.2006 41.8826V30.8001C11.2006 27.7117 8.68768 25.2002 5.60068 25.2002C2.5122 25.2002 0.000732422 27.7118 0.000732422 30.8001V51.8001C0.000732422 57.0277 3.16189 59.7564 3.21094 59.79L14.411 70.9899C14.684 71.2629 15.0423 71.4 15.4008 71.4Z" fill="#2E2E27"/>
<path d="M32.2008 75.6001H9.80082C9.02661 75.6001 8.40088 76.2273 8.40088 77V82.6C8.40088 83.3727 9.02661 83.9999 9.80082 83.9999C10.5736 83.9999 11.2008 83.3727 11.2008 82.6V78.4H30.8008V82.6C30.8008 83.3727 31.4266 83.9999 32.2008 83.9999C32.9735 83.9999 33.6007 83.3727 33.6007 82.6V77C33.6007 76.2273 32.9735 75.6001 32.2008 75.6001Z" fill="#2E2E27"/>
<path d="M8.48615 50.3722C8.54357 51.7807 9.15667 53.1371 10.2109 54.1899L17.211 61.19C17.757 61.7373 18.6433 61.7373 19.1906 61.19C19.7366 60.6425 19.7366 59.7564 19.1906 59.2104L12.1892 52.209C11.6334 51.6547 11.3128 50.9617 11.2834 50.2588C11.2554 49.5673 11.5101 48.9316 12.0212 48.4207C12.5308 47.9096 13.1706 47.6563 13.8594 47.6829C14.5622 47.7122 15.2552 48.0343 15.811 48.5901L25.6755 58.4518C25.7706 58.5358 28.0009 60.5713 28.0009 64.4003V71.4002C28.0009 72.173 28.6266 72.8002 29.4008 72.8002C30.1736 72.8002 30.8008 72.173 30.8008 71.4002V64.4002C30.8008 59.2481 27.6523 56.4594 27.5906 56.4103L17.7905 46.6104C16.7377 45.5561 15.381 44.943 13.974 44.8856C12.4957 44.8269 11.1041 45.377 10.0415 46.4411C8.97751 47.5037 8.42593 48.9009 8.48615 50.3722Z" fill="#2E2E27"/>
<path d="M56.4823 56.3416C56.3492 56.4592 53.2007 59.2479 53.2007 64.4V71.4001C53.2007 72.1728 53.8264 72.8 54.6006 72.8C55.3734 72.8 56.0006 72.1728 56.0006 71.4001V64.4C56.0006 60.5709 58.2294 58.5354 58.3903 58.3897L68.1889 48.5898C68.7448 48.0339 69.4378 47.712 70.1419 47.6825C70.8461 47.6587 71.4692 47.9107 71.9788 48.4203C72.4633 48.9048 72.7194 49.5052 72.7194 50.159C72.7194 50.8968 72.396 51.6248 71.8093 52.21L64.8094 59.2102C64.2634 59.7562 64.2634 60.6425 64.8094 61.1898C65.3569 61.7371 66.243 61.7371 66.789 61.1898L73.7891 54.1912C74.9035 53.0782 75.5181 51.6459 75.5194 50.1592C75.5194 48.7676 74.9664 47.4474 73.9584 46.4409C72.8957 45.3769 71.4832 44.8282 70.0271 44.8854C68.6188 44.9428 67.2635 45.5559 66.2094 46.6102L56.4823 56.3416Z" fill="#2E2E27"/>
<path d="M67.1995 15.4001C67.1995 6.90752 60.2918 0 51.8009 0C45.8354 0 40.3546 3.49305 37.8344 8.90121C37.5083 9.60258 37.8106 10.4357 38.512 10.7618C39.212 11.0895 40.045 10.7843 40.3726 10.0843C42.4349 5.65884 46.9204 2.80005 51.8009 2.80005C58.7476 2.80005 64.3994 8.45184 64.3994 15.4001C64.3994 23.6194 56.0372 36.6801 42.0008 44.5984C27.9629 36.6799 19.6008 23.6194 19.6008 15.4001C19.6008 8.45184 25.2526 2.80005 32.2008 2.80005C33.955 2.80005 35.6519 3.15279 37.2451 3.85005C37.9535 4.15948 38.7796 3.83742 39.0888 3.129C39.3996 2.42058 39.0762 1.596 38.3678 1.28527C36.419 0.432633 34.3428 0 32.2008 0C23.7085 0 16.8008 6.90752 16.8008 15.4001C16.8008 24.4399 25.3968 38.7381 41.3303 47.4293C41.5388 47.5427 41.7699 47.6001 42.0008 47.6001C42.2318 47.6001 42.4613 47.5427 42.6713 47.4293C58.6034 38.7379 67.1995 24.4412 67.1995 15.4001Z" fill="#1C274C"/>
<path d="M78.3994 25.2002C75.3124 25.2002 72.7995 27.7118 72.7995 30.8001V41.8826C72.7995 42.6568 73.4267 43.2825 74.1994 43.2825C74.9722 43.2825 75.5994 42.6568 75.5994 41.8826V30.8001C75.5994 29.256 76.8551 28.0001 78.3994 28.0001C79.9437 28.0001 81.1995 29.2558 81.1995 30.8001V51.8001C81.1995 55.6781 78.9833 57.6549 78.8097 57.8104L67.6097 69.0105C67.0637 69.5565 67.0637 70.4427 67.6097 70.99C67.8827 71.263 68.2412 71.4002 68.5995 71.4002C68.9578 71.4002 69.3163 71.263 69.5893 70.99L80.7025 59.8699C80.8369 59.7565 83.9995 57.0278 83.9995 51.8003V30.8003C83.9995 27.7118 81.4879 25.2002 78.3994 25.2002Z" fill="#2E2E27"/>
<path d="M74.1993 75.6001H51.8008C51.0266 75.6001 50.4009 76.2273 50.4009 77V82.6C50.4009 83.3727 51.0266 83.9999 51.8008 83.9999C52.5736 83.9999 53.2008 83.3727 53.2008 82.6V78.4H72.7994V82.6C72.7994 83.3727 73.4266 83.9999 74.1993 83.9999C74.972 83.9999 75.5992 83.3727 75.5992 82.6V77C75.5994 76.2273 74.9722 75.6001 74.1993 75.6001Z" fill="#2E2E27"/>
<path d="M54.1429 8.80066C56.1099 9.49923 57.7018 11.0924 58.4016 13.065C58.6061 13.639 59.145 13.9973 59.7204 13.9973C59.8758 13.9973 60.0339 13.9708 60.1894 13.9161C60.9174 13.6571 61.2982 12.8563 61.0406 12.1283C60.048 9.32828 57.8752 7.15413 55.0794 6.16155C54.3514 5.90528 53.5507 6.28476 53.2916 7.0127C53.034 7.74213 53.4135 8.5416 54.1429 8.80066Z" fill="#1C274C"/>
</g>
<defs>
<clipPath id="clip0_17_1335">
<rect width="84" height="84" fill="white"/>
</clipPath>
</defs>
</svg>
