<svg width="100" height="100" viewBox="0 0 100 100" fill="none" xmlns="http://www.w3.org/2000/svg">
<g clip-path="url(#clip0_19_1605)">
<mask id="mask0_19_1605" style="mask-type:luminance" maskUnits="userSpaceOnUse" x="0" y="0" width="100" height="100">
<path d="M100 0H0V100H100V0Z" fill="white"/>
</mask>
<g mask="url(#mask0_19_1605)">
<path d="M81.25 12.5H93.75C95.4781 12.5 96.875 13.8969 96.875 15.625V93.75C96.875 95.4781 95.4781 96.875 93.75 96.875H6.25C4.52188 96.875 3.125 95.4781 3.125 93.75V15.625C3.125 13.8969 4.52188 12.5 6.25 12.5H9.375M31.25 12.5H59.375M21.875 40.625H28.125M21.875 59.375H28.125M21.875 78.125H28.125M46.875 40.625H53.125M46.875 59.375H53.125M46.875 78.125H53.125M71.875 40.625H78.125M71.875 59.375H78.125M71.875 78.125H78.125M31.25 18.75C31.25 20.4781 29.8531 21.875 28.125 21.875H21.875C20.1469 21.875 18.75 20.4781 18.75 18.75V6.25C18.75 4.52188 20.1469 3.125 21.875 3.125H28.125C29.8531 3.125 31.25 4.52188 31.25 6.25V18.75ZM81.25 18.75C81.25 20.4781 79.8531 21.875 78.125 21.875H71.875C70.1469 21.875 68.75 20.4781 68.75 18.75V6.25C68.75 4.52188 70.1469 3.125 71.875 3.125H78.125C79.8531 3.125 81.25 4.52188 81.25 6.25V18.75Z" stroke="#2E2E27" stroke-width="4" stroke-linecap="round" stroke-linejoin="round"/>
</g>
</g>
<defs>
<clipPath id="clip0_19_1605">
<rect width="100" height="100" fill="white"/>
</clipPath>
</defs>
</svg>
