<svg width="38" height="38" viewBox="0 0 38 38" fill="none" xmlns="http://www.w3.org/2000/svg">
<g clip-path="url(#clip0_16_865)">
<path d="M19.0005 9.72852C13.8705 9.72852 9.72852 13.8705 9.72852 19.0005C9.72852 24.1305 13.8705 28.2725 19.0005 28.2725C24.1305 28.2725 28.2725 24.1305 28.2725 19.0005C28.2725 13.8705 24.1305 9.72852 19.0005 9.72852ZM19.0005 25.0045C15.6945 25.0045 12.9965 22.3065 12.9965 19.0005C12.9965 15.6945 15.6945 12.9965 19.0005 12.9965C22.3065 12.9965 25.0045 15.6945 25.0045 19.0005C25.0045 22.3065 22.3065 25.0045 19.0005 25.0045Z" fill="white"/>
<path d="M36.9363 11.5523C36.8603 9.61428 36.5563 8.32228 36.1003 7.18228C35.6443 6.00428 35.0363 4.97828 34.0103 3.99028C33.0223 3.00228 31.9963 2.35628 30.8183 1.90028C29.6783 1.44428 28.3483 1.14028 26.4483 1.06428C24.5103 0.988281 23.9023 0.988281 19.0003 0.988281C14.0983 0.988281 13.4903 1.02628 11.5523 1.10228C9.61428 1.17828 8.32228 1.48228 7.18228 1.93828C6.00428 2.39428 4.97828 3.00228 3.99028 4.02828C3.00228 5.01628 2.35628 6.04228 1.90028 7.22028C1.44428 8.36028 1.14028 9.69028 1.06428 11.5903C0.988281 13.4903 0.988281 14.0983 0.988281 19.0003C0.988281 23.9023 1.02628 24.5103 1.10228 26.4483C1.17828 28.3863 1.48228 29.6783 1.93828 30.8183C2.39428 31.9963 3.00228 33.0223 4.02828 34.0103C5.01628 34.9983 6.04228 35.6443 7.22028 36.1003C8.36028 36.5563 9.69028 36.8603 11.5903 36.9363C13.5283 37.0123 14.1363 37.0503 19.0383 37.0503C23.9403 37.0503 24.5483 37.0123 26.4863 36.9363C28.4243 36.8603 29.7163 36.5563 30.8563 36.1003C32.0343 35.6443 33.0603 35.0363 34.0483 34.0103C35.0363 33.0223 35.6823 31.9963 36.1383 30.8183C36.5943 29.6783 36.8983 28.3483 36.9743 26.4483C37.0503 24.5103 37.0883 23.9023 37.0883 19.0003C37.0883 14.0983 37.0123 13.4903 36.9363 11.5523ZM33.6683 26.2963C33.5923 28.0443 33.2883 28.9943 33.0603 29.6403C32.7183 30.4763 32.3383 31.0843 31.7303 31.7303C31.0843 32.3763 30.5143 32.7563 29.6403 33.0603C28.9943 33.2883 28.0443 33.5923 26.2963 33.6683C24.3963 33.7443 23.8263 33.7823 19.0003 33.7823C14.1743 33.7823 13.6043 33.7823 11.7043 33.6683C9.95628 33.5923 9.00628 33.2883 8.36028 33.0603C7.52428 32.7183 6.91628 32.3383 6.27028 31.7303C5.62428 31.0843 5.24428 30.5143 4.94028 29.6403C4.71228 28.9943 4.40828 28.0443 4.33228 26.2963C4.25628 24.3963 4.21828 23.8263 4.21828 19.0003C4.21828 14.1743 4.21828 13.6043 4.33228 11.7043C4.40828 9.95628 4.71228 9.00628 4.94028 8.36028C5.28228 7.52428 5.66228 6.91628 6.27028 6.27028C6.91628 5.62428 7.48628 5.24428 8.36028 4.94028C9.00628 4.71228 9.95628 4.40828 11.7043 4.33228C13.6043 4.25628 14.1743 4.21828 19.0003 4.21828C23.8263 4.21828 24.3963 4.21828 26.2963 4.33228C28.0443 4.40828 28.9943 4.71228 29.6403 4.94028C30.4763 5.28228 31.0843 5.66228 31.7303 6.27028C32.3763 6.91628 32.7563 7.48628 33.0603 8.36028C33.2883 9.00628 33.5923 9.95628 33.6683 11.7043C33.7443 13.6043 33.7823 14.1743 33.7823 19.0003C33.7823 23.8263 33.7443 24.3963 33.6683 26.2963Z" fill="white"/>
<path d="M28.6142 7.21973C27.4362 7.21973 26.4482 8.16973 26.4482 9.38573C26.4482 10.5637 27.3982 11.5517 28.6142 11.5517C29.7922 11.5517 30.7802 10.6017 30.7802 9.38573C30.7802 8.16973 29.8302 7.21973 28.6142 7.21973Z" fill="white"/>
</g>
<defs>
<clipPath id="clip0_16_865">
<rect width="38" height="38" fill="white"/>
</clipPath>
</defs>
</svg>
