<svg width="18" height="20" viewBox="0 0 18 20" fill="none" xmlns="http://www.w3.org/2000/svg">
<path d="M16.5265 4.73247C17.1512 4.10776 17.1512 3.09324 16.5265 2.46853C15.9018 1.84382 14.8872 1.84382 14.2625 2.46853L9 7.73606L3.73247 2.47353C3.10776 1.84882 2.09324 1.84882 1.46853 2.47353C0.843823 3.09824 0.843823 4.11276 1.46853 4.73747L6.73606 10L1.47353 15.2675C0.848821 15.8922 0.848821 16.9068 1.47353 17.5315C2.09824 18.1562 3.11276 18.1562 3.73747 17.5315L9 12.2639L14.2675 17.5265C14.8922 18.1512 15.9068 18.1512 16.5315 17.5265C17.1562 16.9018 17.1562 15.8872 16.5315 15.2625L11.2639 10L16.5265 4.73247Z" fill="#2E2E27"/>
</svg>
