<svg width="18" height="20" viewBox="0 0 18 20" fill="none" xmlns="http://www.w3.org/2000/svg">
<g clip-path="url(#clip0_27_1688)">
<path d="M0.415283 3.75C0.415283 3.05859 0.959099 2.5 1.63221 2.5H16.2354C16.9085 2.5 17.4523 3.05859 17.4523 3.75C17.4523 4.44141 16.9085 5 16.2354 5H1.63221C0.959099 5 0.415283 4.44141 0.415283 3.75ZM0.415283 10C0.415283 9.30859 0.959099 8.75 1.63221 8.75H16.2354C16.9085 8.75 17.4523 9.30859 17.4523 10C17.4523 10.6914 16.9085 11.25 16.2354 11.25H1.63221C0.959099 11.25 0.415283 10.6914 0.415283 10ZM17.4523 16.25C17.4523 16.9414 16.9085 17.5 16.2354 17.5H1.63221C0.959099 17.5 0.415283 16.9414 0.415283 16.25C0.415283 15.5586 0.959099 15 1.63221 15H16.2354C16.9085 15 17.4523 15.5586 17.4523 16.25Z" fill="#2E2E27"/>
</g>
<defs>
<clipPath id="clip0_27_1688">
<rect width="17.037" height="20" fill="white" transform="translate(0.415283)"/>
</clipPath>
</defs>
</svg>
