<svg width="84" height="84" viewBox="0 0 84 84" fill="none" xmlns="http://www.w3.org/2000/svg">
<g clip-path="url(#clip0_17_1178)">
<path d="M82.8094 27.5117H74.5639C73.6479 25.321 72.5192 23.2291 71.1945 21.267C70.6185 20.415 70.0096 19.5942 69.3679 18.8045C69.9989 17.3879 70.2438 15.6059 70.0924 13.4759C70.0717 13.1841 69.948 12.9097 69.7442 12.7035C69.5404 12.4972 69.2702 12.373 68.9835 12.3537C66.8268 12.1961 65.0359 12.4645 63.6259 13.1538C59.8756 10.214 55.5834 8.07159 51.0041 6.85366C51.2576 5.61522 51.3316 4.34564 51.2235 3.08537C51.203 2.79466 51.0803 2.52122 50.8779 2.31513C50.6755 2.10904 50.4069 1.9841 50.1214 1.96319C46.7402 1.71555 44.2536 2.51562 42.7297 4.34089C42.4966 4.61859 42.2893 4.91774 42.1105 5.23447C41.9321 4.91594 41.7248 4.61505 41.4915 4.33569C39.9607 2.51043 37.4826 1.71036 34.0997 1.958C33.8142 1.9789 33.5456 2.10384 33.3432 2.30993C33.1408 2.51602 33.0181 2.78947 32.9976 3.08017C32.8891 4.33633 32.9624 5.6019 33.2153 6.83634C32.1948 7.10419 31.1913 7.41879 30.2048 7.78015C26.3918 9.18152 22.843 11.238 19.7125 13.8603C18.1817 12.6481 16.0013 12.1442 13.2137 12.3485C12.9281 12.3694 12.6596 12.4943 12.4572 12.7004C12.2548 12.9065 12.1321 13.18 12.1115 13.4707C11.9023 16.4147 12.4517 18.6902 13.7324 20.2591C9.68704 25.8419 7.3148 32.4973 6.90194 39.4223C6.48908 46.3473 8.05324 53.2459 11.4057 59.2859C12.902 61.9701 14.7312 64.4472 16.8483 66.6562H12.9211C11.8304 66.6576 10.7847 67.0994 10.0134 67.8847C9.24209 68.67 8.80819 69.7347 8.80684 70.8453C8.80684 71.3133 8.62424 71.7622 8.29921 72.0931C7.97419 72.4241 7.53336 72.61 7.0737 72.61H1.19057C0.874813 72.61 0.571986 72.7377 0.348711 72.965C0.125435 73.1924 0 73.5007 0 73.8222C0 74.1437 0.125435 74.452 0.348711 74.6794C0.571986 74.9067 0.874813 75.0344 1.19057 75.0344H7.0737C8.1643 75.0331 9.20983 74.5912 9.98084 73.8059C10.7519 73.0205 11.1854 71.9558 11.1863 70.8453C11.1867 70.3775 11.3695 69.9289 11.6944 69.598C12.0193 69.2672 12.4599 69.0811 12.9194 69.0807H19.3995C25.7296 74.5158 33.74 77.5029 42.0204 77.516H42.1105C46.8215 77.5326 51.4872 76.58 55.8277 74.7153C60.1681 72.8507 64.0939 70.1124 67.3694 66.6649C68.6844 65.2912 69.8896 63.8128 70.9734 62.2437C74.1718 57.6011 76.2473 52.2546 77.0306 46.64C77.8138 41.0255 77.2827 35.302 75.4806 29.9362H82.8094C83.1252 29.9362 83.428 29.8085 83.6513 29.5811C83.8746 29.3538 84 29.0455 84 28.7239C84 28.4024 83.8746 28.0941 83.6513 27.8668C83.428 27.6394 83.1252 27.5117 82.8094 27.5117ZM66.2196 19.1474C65.0512 20.1656 63.4065 20.2124 62.4472 20.1327C62.3707 19.1578 62.4166 17.4866 63.4048 16.3021C64.2671 15.263 65.7247 14.7435 67.7487 14.7435C67.7385 16.7887 67.2248 18.2694 66.2196 19.1474ZM44.5427 5.91159C45.405 4.87254 46.8626 4.35301 48.8866 4.35301C48.8764 6.40687 48.3628 7.88925 47.3559 8.76551C46.1925 9.77512 44.5444 9.82361 43.5852 9.73703C43.5086 8.76725 43.5545 7.09611 44.5427 5.91159ZM39.6699 5.9012C40.67 7.09091 40.7159 8.76725 40.6359 9.74222C39.6767 9.82188 38.032 9.77512 36.8635 8.75685C35.8583 7.88059 35.3447 6.39821 35.3328 4.34435C37.3483 4.35474 38.8076 4.876 39.6699 5.9012ZM28.0006 14.7331C27.9904 16.787 27.4784 18.2676 26.4698 19.1456C25.3014 20.1656 23.655 20.2107 22.6974 20.131C22.6192 19.1543 22.6634 17.4797 23.6635 16.29C24.5275 15.2665 25.9834 14.7435 27.9938 14.7349L28.0006 14.7331ZM18.7838 16.2917C19.7839 17.4797 19.8298 19.156 19.7516 20.131C18.794 20.2107 17.151 20.1639 15.9877 19.156C14.9672 18.2798 14.457 16.7939 14.457 14.7349C16.4656 14.7453 17.9215 15.2665 18.7838 16.2917ZM18.4437 50.5648C18.4793 50.8375 18.497 51.1123 18.4964 51.3874C18.4902 52.8945 17.9529 54.3493 16.9821 55.4871C16.0113 56.6249 14.6717 57.3701 13.2069 57.587C10.9734 53.3944 9.64361 48.7649 9.30633 44.0076C8.96905 39.2502 9.63198 34.4744 11.2509 29.9985C12.9832 29.504 14.8245 29.579 16.5124 30.2129C18.2003 30.8467 19.6486 32.0071 20.6506 33.5284C21.6527 35.0497 22.1574 36.8543 22.0928 38.6849C22.0282 40.5154 21.3975 42.2785 20.2908 43.7226C19.5557 44.6831 19.0142 45.782 18.6975 46.9562C18.3808 48.1304 18.2951 49.3568 18.4454 50.5648H18.4437ZM43.9185 75.0414C43.9185 74.9115 43.9185 74.811 43.9185 74.7591C43.9194 73.3959 44.4514 72.0887 45.3978 71.1245C46.3442 70.1602 47.6277 69.6176 48.9665 69.6158C50.948 69.6158 52.3801 70.7241 53.2339 71.6558C53.5587 72.012 53.8518 72.3968 54.1098 72.8057C50.8518 74.1004 47.4111 74.8552 43.9185 75.0414ZM75.001 41.693C74.9971 48.5523 72.9108 55.2427 69.0277 60.8479C65.7128 65.6464 61.2265 69.4819 56.0113 71.9762C55.6451 71.3545 55.2152 70.774 54.7289 70.2444C53.1319 68.504 51.0875 67.5446 48.9699 67.5446C47.0901 67.5474 45.288 68.3092 43.959 69.663C42.6301 71.0167 41.8827 72.852 41.8809 74.766C41.8809 74.8232 41.8809 74.9392 41.8809 75.095C36.0308 75.0559 30.2971 73.4268 25.2725 70.376C24.6023 69.9673 23.9487 69.5355 23.3114 69.0807H27.555C27.8707 69.0807 28.1735 68.953 28.3968 68.7256C28.6201 68.4983 28.7455 68.1899 28.7455 67.8684C28.7455 67.5469 28.6201 67.2386 28.3968 67.0113C28.1735 66.7839 27.8707 66.6562 27.555 66.6562H20.2925C17.9754 64.5629 15.959 62.1483 14.3022 59.4833C16.2605 58.9928 17.9724 57.7842 19.1102 56.0889C20.2481 54.3935 20.732 52.3305 20.4693 50.2946C20.3526 49.359 20.4189 48.409 20.6644 47.4995C20.9099 46.59 21.3298 45.739 21.8997 44.9955C23.146 43.3697 23.908 41.414 24.0951 39.3605C24.2823 37.307 23.8868 35.2419 22.9556 33.4104C22.0245 31.5789 20.5967 30.0579 18.8418 29.028C17.087 27.9981 15.0787 27.5025 13.0555 27.6C12.7646 27.6139 12.4755 27.6416 12.1881 27.6797C13.1183 25.599 14.2583 23.6223 15.5897 21.7814C16.6979 22.3297 17.9176 22.6039 19.1495 22.5814C19.3757 22.5814 19.5883 22.5814 19.7856 22.5606V26.748C19.7856 27.0695 19.911 27.3779 20.1343 27.6052C20.3576 27.8325 20.6604 27.9602 20.9762 27.9602C21.2919 27.9602 21.5948 27.8325 21.818 27.6052C22.0413 27.3779 22.1668 27.0695 22.1668 26.748V22.5139C22.549 22.5593 22.9334 22.5819 23.3182 22.5814C24.6789 22.5814 26.526 22.2905 28.0125 21.0038C29.8051 19.4452 30.5909 16.9186 30.346 13.4759C30.3255 13.1854 30.2031 12.9122 30.001 12.7062C29.7989 12.5001 29.5308 12.375 29.2456 12.3537C28.1011 12.2543 26.9488 12.3091 25.8184 12.5165C27.4771 11.5466 29.2164 10.7272 31.0161 10.0678C32.0281 9.6972 33.0571 9.37509 34.098 9.11706C34.4295 9.68105 34.8488 10.1864 35.3396 10.6133C36.8261 11.9 38.6681 12.1909 40.0356 12.1909C40.3638 12.1909 40.6666 12.1753 40.9285 12.1511V16.3575C40.9285 16.679 41.0539 16.9873 41.2772 17.2147C41.5005 17.442 41.8033 17.5697 42.1191 17.5697C42.4348 17.5697 42.7376 17.442 42.9609 17.2147C43.1842 16.9873 43.3096 16.679 43.3096 16.3575V12.1511C43.5715 12.1753 43.8743 12.1909 44.2026 12.1909C45.5632 12.1909 47.412 11.9 48.8985 10.6133C49.3854 10.189 49.8023 9.68795 50.1333 9.12918C54.2914 10.1954 58.205 12.0778 61.6547 14.6708L61.6002 14.7331C61.3643 15.0099 61.1542 15.3085 60.9726 15.625C60.7941 15.3064 60.5869 15.0056 60.3535 14.7262C58.8228 12.9009 56.343 12.1009 52.9618 12.3485C52.6763 12.3694 52.4077 12.4943 52.2053 12.7004C52.0029 12.9065 51.8802 13.18 51.8596 13.4707C51.6147 16.9134 52.4005 19.447 54.1932 20.9986C55.6797 22.2853 57.5217 22.5762 58.8874 22.5762C59.2055 22.5762 59.4946 22.5606 59.7497 22.5381V26.7428C59.7497 27.0643 59.8752 27.3727 60.0984 27.6C60.3217 27.8273 60.6245 27.955 60.9403 27.955C61.2561 27.955 61.5589 27.8273 61.7822 27.6C62.0054 27.3727 62.1309 27.0643 62.1309 26.7428V22.5381C62.4013 22.5641 62.7143 22.5814 63.0561 22.5814C64.4168 22.5814 66.2656 22.2905 67.7521 21.0038C67.8099 20.9536 67.8643 20.8999 67.9222 20.8462C68.3746 21.4281 68.8117 22.0255 69.2267 22.642C70.2705 24.1842 71.1848 25.8132 71.9599 27.5117H68.1756C67.0853 27.5131 66.04 27.9547 65.269 28.7397C64.4981 29.5247 64.0644 30.589 64.063 31.6991C64.0621 32.1667 63.8792 32.6148 63.5543 32.9453C63.2294 33.2757 62.7891 33.4616 62.3299 33.462H56.445C56.1293 33.462 55.8265 33.5897 55.6032 33.8171C55.3799 34.0444 55.2545 34.3527 55.2545 34.6742C55.2545 34.9957 55.3799 35.3041 55.6032 35.5314C55.8265 35.7588 56.1293 35.8865 56.445 35.8865H62.3299C63.4206 35.8851 64.4663 35.4433 65.2376 34.658C66.0089 33.8727 66.4428 32.808 66.4442 31.6974C66.4451 31.2301 66.6278 30.7822 66.9523 30.4518C67.2768 30.1214 67.7167 29.9354 68.1756 29.9344H72.9532C74.3231 33.6971 75.0167 37.6802 75.001 41.693ZM59.498 20.1275C58.5388 20.2072 56.8941 20.1604 55.7256 19.1422C54.7187 18.2642 54.2068 16.7835 54.1949 14.7297C56.212 14.7401 57.6679 15.2613 58.5303 16.2882C59.532 17.4814 59.578 19.1578 59.498 20.1275Z" fill="#2E2E27"/>
<path d="M78.0391 76.3506C76.1257 75.5436 75.7209 75.1297 74.9351 73.1832C74.7999 72.851 74.571 72.5671 74.2774 72.3674C73.9837 72.1676 73.6385 72.061 73.2853 72.061C72.9322 72.061 72.587 72.1676 72.2933 72.3674C71.9996 72.5671 71.7707 72.851 71.6355 73.1832C70.843 75.1297 70.4365 75.5436 68.5247 76.3506C68.1985 76.4883 67.9197 76.7213 67.7235 77.0203C67.5273 77.3193 67.4226 77.6708 67.4226 78.0304C67.4226 78.39 67.5273 78.7415 67.7235 79.0405C67.9197 79.3395 68.1985 79.5725 68.5247 79.7102C70.3956 80.4981 70.86 80.9726 71.6338 82.8758C71.7688 83.2085 71.9977 83.493 72.2915 83.6931C72.5854 83.8933 72.931 84.0001 73.2845 84.0001C73.638 84.0001 73.9836 83.8933 74.2774 83.6931C74.5713 83.493 74.8002 83.2085 74.9351 82.8758C75.709 80.9709 76.175 80.4964 78.0442 79.7085C78.3705 79.5708 78.6493 79.3377 78.8455 79.0387C79.0417 78.7397 79.1464 78.3882 79.1464 78.0287C79.1464 77.6691 79.0417 77.3176 78.8455 77.0186C78.6493 76.7196 78.3705 76.4865 78.0442 76.3489L78.0391 76.3506ZM73.2768 81.5268C72.4604 79.7033 71.6338 78.8616 69.8429 78.0304C71.6525 77.1957 72.4553 76.3783 73.2768 74.534C74.0966 76.3783 74.8994 77.1957 76.7108 78.0304C74.9232 78.8616 74.0949 79.6998 73.2802 81.5268H73.2768Z" fill="#1C274C"/>
<path d="M3.2682 7.64845C5.1391 8.4364 5.60342 8.90917 6.3773 10.8141C6.5125 11.1463 6.7414 11.4302 7.03505 11.6299C7.32871 11.8297 7.67393 11.9363 8.02709 11.9363C8.38024 11.9363 8.72547 11.8297 9.01912 11.6299C9.31278 11.4302 9.54168 11.1463 9.67688 10.8141C10.4525 8.90917 10.9168 8.4364 12.7877 7.64845C13.1138 7.51043 13.3925 7.27715 13.5885 6.97803C13.7845 6.67892 13.8891 6.32738 13.8891 5.96779C13.8891 5.6082 13.7845 5.25666 13.5885 4.95755C13.3925 4.65843 13.1138 4.42515 12.7877 4.28712C10.876 3.48186 10.4695 3.0749 9.67858 1.12148C9.54303 0.789433 9.31391 0.505708 9.02014 0.306113C8.72637 0.106519 8.38111 0 8.02794 0C7.67477 0 7.32951 0.106519 7.03574 0.306113C6.74197 0.505708 6.51285 0.789433 6.3773 1.12148C5.58641 3.06797 5.18672 3.48186 3.2682 4.28712C2.94208 4.42515 2.66342 4.65843 2.46739 4.95755C2.27136 5.25666 2.16675 5.6082 2.16675 5.96779C2.16675 6.32738 2.27136 6.67892 2.46739 6.97803C2.66342 7.27715 2.94208 7.51043 3.2682 7.64845ZM8.03049 2.47225C8.84858 4.31656 9.65137 5.13222 11.461 5.96866C9.67008 6.79297 8.84348 7.64153 8.02709 9.46506C7.2124 7.64153 6.3926 6.79297 4.59314 5.96866C6.40451 5.13222 7.20729 4.31656 8.02709 2.47225H8.03049Z" fill="#1C274C"/>
</g>
<defs>
<clipPath id="clip0_17_1178">
<rect width="84" height="84" fill="white"/>
</clipPath>
</defs>
</svg>
