<svg width="100" height="100" viewBox="0 0 100 100" fill="none" xmlns="http://www.w3.org/2000/svg">
<path d="M85.9375 32.8125V17.1875H79.6875V1.5625H7.8125V90.625C7.8125 94.9328 11.3172 98.4375 15.625 98.4375H84.375C88.6828 98.4375 92.1875 94.9328 92.1875 90.625V32.8125H85.9375ZM15.625 95.3125C13.0406 95.3125 10.9375 93.2094 10.9375 90.625V4.6875H76.5625V90.625C76.5625 92.3828 77.1453 94.0062 78.1281 95.3125H15.625ZM89.0625 90.625C89.0625 93.2094 86.9594 95.3125 84.375 95.3125C81.7906 95.3125 79.6875 93.2094 79.6875 90.625V20.3125H82.8125V85.9375H85.9375V35.9375H89.0625V90.625Z" fill="#2E2E27"/>
<path d="M85.9375 89.0625H82.8125V92.1875H85.9375V89.0625Z" fill="#2E2E27"/>
<path d="M61.5203 73.7637L56.25 72.259V71.8418C58.1969 70.3746 59.375 68.0668 59.375 65.6246V62.7684C59.375 58.634 56.2781 55.1012 52.3234 54.7246C50.1344 54.509 47.9328 55.2403 46.3078 56.7168C44.6828 58.1949 43.75 60.3028 43.75 62.4996V65.6246C43.75 68.0668 44.9281 70.3746 46.875 71.8418V72.259L41.6031 73.7637C38.2672 74.7184 35.9375 77.8074 35.9375 81.2778V85.9371H67.1875V81.2778C67.1875 77.8074 64.8578 74.7184 61.5203 73.7637ZM64.0625 82.8121H39.0625V81.2778C39.0625 79.1965 40.4609 77.3418 42.4625 76.7699L50 74.6153V70.109L49.2234 69.6574C47.7531 68.8012 46.875 67.2934 46.875 65.6246V62.4996C46.875 61.1809 47.4344 59.9168 48.4094 59.0293C49.3984 58.1293 50.6719 57.7121 52.0266 57.8324C54.3953 58.059 56.25 60.2278 56.25 62.7684V65.6246C56.25 67.2934 55.3719 68.8012 53.9016 69.6574L53.125 70.109V74.6153L60.6609 76.7699C62.6641 77.3418 64.0625 79.1965 64.0625 81.2778V82.8121Z" fill="#2E2E27"/>
<path d="M29.6875 92.1875H73.4375V48.4375H29.6875V92.1875ZM32.8125 51.5625H70.3125V89.0625H32.8125V51.5625Z" fill="#2E2E27"/>
<path d="M32.8125 45.3125C43.1516 45.3125 51.5625 36.9016 51.5625 26.5625C51.5625 16.2234 43.1516 7.8125 32.8125 7.8125C22.4734 7.8125 14.0625 16.2234 14.0625 26.5625C14.0625 36.9016 22.4734 45.3125 32.8125 45.3125ZM32.8125 42.1875C26.4406 42.1875 20.9563 38.3469 18.5266 32.8641C20.4094 32.9922 22.1703 33.7531 23.5172 35.1L23.8406 35.4234C25.1781 36.7625 26.9578 37.5 28.8516 37.5C32.7594 37.5 35.9375 34.3219 35.9375 30.4141V28.9062C35.9375 25.8906 33.4844 23.4375 30.4688 23.4375C29.1766 23.4375 28.125 22.3859 28.125 21.0938V18.75C28.125 16.5078 27.4016 14.2984 26.1125 12.4688C27.7281 11.6969 29.4891 11.1859 31.3516 11.0125C31.3078 11.3656 31.25 11.7203 31.25 12.075C31.25 14.8094 32.4734 17.3578 34.6094 19.0656L37.2719 21.1938C38.4094 22.1031 39.0625 23.4625 39.0625 24.9172C39.0625 29.2703 42.6047 32.8125 46.9578 32.8125C47.0141 32.8125 47.0734 32.8016 47.1297 32.8C44.7156 38.3188 39.2094 42.1875 32.8125 42.1875ZM48.4375 26.5625C48.4375 27.5953 48.3312 28.6047 48.1391 29.5828C47.7422 29.6453 47.3469 29.6875 46.9578 29.6875C44.3266 29.6875 42.1875 27.5484 42.1875 24.9172C42.1875 22.5078 41.1094 20.2609 39.225 18.7531L36.5625 16.6234C35.1719 15.5125 34.375 13.8531 34.375 12.075C34.375 11.7281 34.4094 11.3797 34.4781 11.0297C42.3125 11.8641 48.4375 18.5094 48.4375 26.5625ZM23.45 14.0828C24.4484 15.4219 25 17.0781 25 18.75V21.0938C25 24.1094 27.4531 26.5625 30.4688 26.5625C31.7609 26.5625 32.8125 27.6141 32.8125 28.9062V30.4141C32.8125 32.5969 31.0344 34.375 28.8516 34.375C27.7922 34.375 26.7984 33.9625 26.05 33.2156L25.7266 32.8922C23.6609 30.8266 20.9141 29.6875 17.9922 29.6875C17.8313 29.6875 17.6641 29.6656 17.4953 29.6406C17.2953 28.6437 17.1875 27.6156 17.1875 26.5625C17.1875 21.4609 19.6563 16.9375 23.45 14.0828Z" fill="#2E2E27"/>
<path d="M73.4375 7.8125H54.6875V10.9375H73.4375V7.8125Z" fill="#2E2E27"/>
<path d="M57.8125 14.0625H54.6875V17.1875H57.8125V14.0625Z" fill="#2E2E27"/>
<path d="M73.4375 14.0625H60.9375V17.1875H73.4375V14.0625Z" fill="#2E2E27"/>
<path d="M73.4375 20.3125H54.6875V23.4375H73.4375V20.3125Z" fill="#2E2E27"/>
<path d="M73.4375 26.5625H54.6875V29.6875H73.4375V26.5625Z" fill="#2E2E27"/>
<path d="M67.1875 32.8125H54.6875V35.9375H67.1875V32.8125Z" fill="#2E2E27"/>
<path d="M73.4375 32.8125H70.3125V35.9375H73.4375V32.8125Z" fill="#2E2E27"/>
<path d="M26.5625 87.5H14.0625V90.625H26.5625V87.5Z" fill="#2E2E27"/>
<path d="M26.5625 81.25H14.0625V84.375H26.5625V81.25Z" fill="#2E2E27"/>
<path d="M26.5625 75H14.0625V78.125H26.5625V75Z" fill="#2E2E27"/>
<path d="M26.5625 68.75H14.0625V71.875H26.5625V68.75Z" fill="#2E2E27"/>
<path d="M26.5625 62.5H14.0625V65.625H26.5625V62.5Z" fill="#2E2E27"/>
</svg>
