<svg width="100" height="100" viewBox="0 0 100 100" fill="none" xmlns="http://www.w3.org/2000/svg">
<path d="M40.9597 59.4607C45.4486 63.4178 49.1113 66.1754 55.2718 66.1754H75.9368C78.7291 66.1754 80.9874 64.9051 82.2966 62.5987C83.5219 60.4396 83.6744 57.5946 82.6918 55.7178C83.3799 55.4042 84.0025 54.9121 84.5335 54.2521C86.4424 51.8771 86.7613 47.7999 85.861 45.4813C85.6871 45.0335 85.481 44.6704 85.2583 44.3743C85.6246 44.0737 85.9877 43.6648 86.3219 43.1117C88.0324 40.2888 88.1546 35.0337 86.5722 32.2985C86.328 31.8759 86.0458 31.5104 85.733 31.2053C86.6394 30.1684 87.1918 28.551 87.1918 26.6345C87.1933 23.099 85.1243 19.2928 80.5771 19.2881L63.6885 19.2706C67.1554 14.2131 66.9051 7.11854 64.7733 3.68604C63.4946 1.62838 61.7979 1.30947 60.478 1.72682C58.9857 1.76338 57.6476 3.36635 55.5936 5.82994C54.849 6.72182 54.0526 7.67854 53.2332 8.5551C46.1501 16.1365 43.8354 18.6274 43.0372 19.5223L40.8891 20.4345C40.0488 18.4401 38.0749 17.0359 35.7786 17.0359H22.853C19.7997 17.0359 17.3157 19.5231 17.3157 22.5795V57.5428C17.3157 60.5992 19.7997 63.0856 22.853 63.0856H35.7788C38.1582 63.0854 40.1754 61.5706 40.9597 59.4607ZM41.3222 23.6453L44.5663 22.2674C44.8074 22.1653 45.0165 22.0057 45.1766 21.8043C45.5688 21.3581 49.7893 16.8185 55.516 10.6882C56.3857 9.759 57.2021 8.77854 57.9925 7.83104C58.9111 6.73088 60.1471 5.24854 60.7177 4.87541C60.9435 4.87385 61.1679 4.82275 61.3754 4.72432C61.6271 4.61369 61.946 5.05619 62.1185 5.33463C63.8244 8.08275 64.0015 15.7778 59.1583 19.6031C58.6365 20.0151 58.4335 20.7124 58.6518 21.341C58.8685 21.9696 59.4605 22.3909 60.1258 22.3917L80.5741 22.4131C83.9005 22.4162 84.0683 25.9287 84.0669 26.6329C84.0669 28.3624 83.3833 29.3131 83.0965 29.3146L82.8218 29.3253C81.6057 29.3596 80.7069 30.2148 80.7313 31.3157C80.7527 32.2817 81.5843 33.281 83.0201 33.2207C83.1666 33.2245 83.4916 33.2131 83.8669 33.8631C84.8924 35.6362 84.7794 39.6285 83.6502 41.4924C83.4274 41.8609 83.2061 42.0509 83.0994 42.0509C83.0994 42.0509 83.0979 42.0509 83.0963 42.0509C82.9743 42.0478 82.8507 42.0546 82.7285 42.0784C81.6069 42.2988 80.8426 43.1701 80.8669 44.1978C80.8913 45.2262 81.6879 46.0585 82.7025 46.1882C83.171 46.5423 83.6043 49.0951 82.6705 51.3045C81.8725 53.1851 80.8502 53.0287 80.519 52.9731C80.4396 52.9609 80.3588 52.9548 80.2794 52.9548L79.6707 52.9571C78.8788 52.9145 78.1524 53.2676 77.7557 53.9017C77.391 54.4876 77.3696 55.2246 77.7022 55.8251C78.0624 56.4751 78.7672 56.8635 79.6218 56.8635C79.634 56.8498 79.7408 56.8559 79.8858 57.1015C80.3635 57.901 80.3818 59.6406 79.5791 61.0559C78.8269 62.3796 77.6016 63.0503 75.9368 63.0503H55.2718C49.6672 63.0503 46.6415 60.351 41.629 55.8793L41.3222 55.6054V23.6453ZM38.1972 22.6115V56.306V57.5428C38.1972 58.8756 37.1124 59.9606 35.7786 59.9606H22.853C21.5224 59.9606 20.4407 58.8757 20.4407 57.5428V22.5795C20.4407 21.2459 21.5225 20.1609 22.853 20.1609H35.7788C37.1124 20.1609 38.1974 21.2457 38.1974 22.5795L38.1972 22.6115Z" fill="#2E2E27"/>
<path d="M27.7038 81.7241L20.6604 80.3615L17.1874 74.0818C16.9127 73.5843 16.3894 73.2754 15.8202 73.2754C15.2525 73.2754 14.7277 73.5845 14.453 74.081L10.9786 80.3615L3.93816 81.7241C3.38129 81.8324 2.92504 82.2352 2.74957 82.7755C2.5741 83.3165 2.70535 83.9101 3.09441 84.3251L7.99097 89.5657L7.10894 96.6832C7.03879 97.2477 7.28144 97.8055 7.74066 98.1396C8.01223 98.3371 8.33426 98.4379 8.65926 98.4379C8.88363 98.4379 9.11097 98.389 9.32144 98.2907L15.8202 95.252L22.3158 98.2907C22.83 98.531 23.4358 98.4762 23.8966 98.1396C24.3558 97.8054 24.5985 97.2477 24.5283 96.6832L23.6463 89.5657L28.5474 84.3259C28.9349 83.9109 29.0677 83.3173 28.8922 82.7763C28.7168 82.2354 28.2607 81.8326 27.7038 81.7241ZM20.8647 87.9651C20.5489 88.3038 20.3979 88.7646 20.4558 89.2248L21.0799 94.2624L16.4824 92.1116C16.0613 91.9148 15.5791 91.9148 15.1579 92.1116L10.5574 94.2632L11.1814 89.2248C11.2394 88.7655 11.0883 88.3038 10.7725 87.9659L7.30566 84.2557L12.2893 83.2913C12.7424 83.2029 13.1346 82.9182 13.3589 82.5138L15.8202 78.0659L18.2783 82.5131C18.5027 82.9182 18.8947 83.2027 19.348 83.2912L24.3346 84.2555L20.8647 87.9651Z" fill="#2E2E27"/>
<path d="M62.3412 81.7244L55.2978 80.3618L51.8264 74.0821C51.277 73.0872 49.6414 73.0872 49.092 74.0821L45.6206 80.3618L38.5772 81.7244C38.0187 81.8327 37.5625 82.2355 37.387 82.7758C37.2116 83.3168 37.3428 83.9103 37.7319 84.3253L42.6284 89.566L41.7464 96.6835C41.6762 97.248 41.9189 97.8058 42.3781 98.1399C42.8373 98.4749 43.4447 98.5336 43.9589 98.291L50.4592 95.2522L56.9534 98.291C57.164 98.3894 57.3898 98.4382 57.6156 98.4382C57.9391 98.4382 58.2626 98.3374 58.5342 98.1399C58.9934 97.8064 59.2361 97.2488 59.1659 96.6843L58.2886 89.566L63.1867 84.3261C63.5758 83.9103 63.707 83.3168 63.5315 82.7758C63.3561 82.2357 62.8998 81.8328 62.3412 81.7244ZM55.5069 87.9661C55.1911 88.3041 55.0414 88.7649 55.098 89.2243L55.719 94.2635L51.1216 92.1119C50.7005 91.915 50.2183 91.915 49.797 92.1119L45.195 94.2635L45.819 89.225C45.877 88.7658 45.7259 88.3041 45.4101 87.9661L41.9434 84.256L46.9316 83.2916C47.3862 83.2032 47.7784 82.9185 48.0026 82.5135L50.4594 78.0686L52.9161 82.5135C53.1405 82.9186 53.5325 83.2032 53.9872 83.2916L58.9737 84.256L55.5069 87.9661Z" fill="#2E2E27"/>
<path d="M97.2503 82.7755C97.0748 82.2354 96.6185 81.8326 96.0617 81.7241L89.0182 80.3615L85.5468 74.0818C85.2721 73.5843 84.7488 73.2754 84.1796 73.2754C83.6104 73.2754 83.0871 73.5845 82.8124 74.0818L79.3395 80.3615L72.296 81.7241C71.7392 81.8324 71.2829 82.2352 71.1074 82.7762C70.932 83.3171 71.0648 83.9107 71.4523 84.3257L76.3534 89.5655L75.4713 96.683C75.4012 97.2476 75.6438 97.8054 76.1031 98.1395C76.5623 98.4745 77.1696 98.5301 77.6838 98.2905L84.1795 95.2518L90.6782 98.2905C90.8888 98.3891 91.1148 98.4379 91.3406 98.4379C91.6656 98.4379 91.9876 98.3371 92.2592 98.1396C92.7184 97.8054 92.961 97.2477 92.8909 96.6832L92.0088 89.5657L96.9054 84.3251C97.2946 83.9099 97.4257 83.3165 97.2503 82.7755ZM89.2273 87.9659C88.9115 88.3038 88.7604 88.7654 88.8184 89.2248L89.4424 94.2632L84.842 92.1116C84.6313 92.0132 84.4056 91.9645 84.1798 91.9645C83.954 91.9645 83.7281 92.0134 83.5176 92.1116L78.9201 94.2624L79.5442 89.2248C79.6021 88.7648 79.451 88.3038 79.1352 87.9651L75.6654 84.2557L80.652 83.2913C81.1051 83.2029 81.4973 82.9182 81.7217 82.5132L84.1798 78.0676L86.6365 82.5132C86.8609 82.9184 87.2529 83.2029 87.7062 83.2913L92.6943 84.2557L89.2273 87.9659Z" fill="#2E2E27"/>
</svg>
