<svg width="85" height="84" viewBox="0 0 85 84" fill="none" xmlns="http://www.w3.org/2000/svg">
<path d="M77.5 42C77.5 61.3298 61.8298 77 42.5 77C23.17 77 7.5 61.3298 7.5 42C7.5 22.67 23.17 7 42.5 7" stroke="#2E2E27" stroke-width="2" stroke-linecap="round"/>
<path d="M23.25 38.5C25.2342 40.706 27.6473 42 30.25 42C32.8527 42 35.2658 40.706 37.25 38.5" stroke="#2E2E27" stroke-width="2" stroke-linecap="round"/>
<path d="M47.75 38.5C49.7341 40.706 52.1474 42 54.75 42C57.3526 42 59.7658 40.706 61.75 38.5" stroke="#2E2E27" stroke-width="2" stroke-linecap="round"/>
<path d="M46 56C46 57.933 44.433 59.5 42.5 59.5C40.5669 59.5 39 57.933 39 56C39 54.0669 40.5669 52.5 42.5 52.5C44.433 52.5 46 54.0669 46 56Z" fill="#2E2E27"/>
<path d="M60 14L72.1243 7L67 26.1243L79.1243 19.1243" stroke="#1C274C" stroke-width="2" stroke-linecap="round" stroke-linejoin="round"/>
<path d="M49.6677 19.25L55.7297 22.75L46.1677 25.3122L52.2297 28.8122" stroke="#1C274C" stroke-width="2" stroke-linecap="round" stroke-linejoin="round"/>
</svg>
