<svg width="38" height="38" viewBox="0 0 38 38" fill="none" xmlns="http://www.w3.org/2000/svg">
<path d="M37.2052 9.79486C36.9905 8.98622 36.5671 8.24816 35.9775 7.65461C35.3878 7.06107 34.6526 6.63286 33.8453 6.41286C30.8829 5.61328 19 5.61328 19 5.61328C19 5.61328 7.11708 5.61328 4.15308 6.41286C3.34623 6.63324 2.61138 7.06161 2.02204 7.65512C1.4327 8.24863 1.00952 8.98648 0.794833 9.79486C0 12.7779 0 19.0004 0 19.0004C0 19.0004 0 25.2229 0.794833 28.2059C1.00951 29.0145 1.43288 29.7526 2.02254 30.3461C2.61219 30.9397 3.34745 31.3679 4.15467 31.5879C7.11708 32.3874 19 32.3874 19 32.3874C19 32.3874 30.8829 32.3874 33.8469 31.5879C34.6542 31.368 35.3895 30.9399 35.9792 30.3463C36.5689 29.7527 36.9922 29.0146 37.2068 28.2059C38 25.2229 38 19.0004 38 19.0004C38 19.0004 38 12.7779 37.2052 9.79486ZM15.1129 24.6497V13.351L25.0452 19.0004L15.1129 24.6497Z" fill="white"/>
</svg>
