<svg width="36" height="37" viewBox="0 0 36 37" fill="none" xmlns="http://www.w3.org/2000/svg">
<g clip-path="url(#clip0_55_19)">
<path d="M17.7846 35.5435C27.5684 35.5435 35.4997 27.612 35.4997 17.8282C35.4997 8.04437 27.5684 0.112991 17.7846 0.112991C8.00071 0.112991 0.0693359 8.04437 0.0693359 17.8282C0.0693359 27.612 8.00071 35.5435 17.7846 35.5435Z" fill="#FFA3B0"/>
<path d="M7.56129 18.5185C12.0822 19.9594 15.6517 23.5298 17.0927 28.0495C17.3082 28.7246 18.2596 28.7246 18.475 28.0495C19.916 23.5287 23.4865 19.9584 28.0065 18.5185C28.6816 18.3031 28.6816 17.3517 28.0065 17.1364C23.4855 15.6953 19.916 12.125 18.475 7.60428C18.2596 6.92917 17.3082 6.92917 17.0927 7.60428C15.6517 12.125 12.0812 15.6953 7.56129 17.1364C6.88615 17.3507 6.88615 18.3031 7.56129 18.5185Z" fill="white"/>
</g>
<defs>
<clipPath id="clip0_55_19">
<rect width="35.5" height="36.8148" fill="white"/>
</clipPath>
</defs>
</svg>
