<svg width="76" height="79" viewBox="0 0 76 79" fill="none" xmlns="http://www.w3.org/2000/svg">
<path d="M38.074 76.0932C59.0196 76.0932 75.9994 59.1131 75.9994 38.1675C75.9994 17.2217 59.0196 0.241898 38.074 0.241898C17.1283 0.241898 0.148438 17.2217 0.148438 38.1675C0.148438 59.1131 17.1283 76.0932 38.074 76.0932Z" fill="#FFA3B0"/>
<path d="M16.1876 39.6453C25.8662 42.73 33.5078 50.3736 36.5929 60.0496C37.0542 61.495 39.091 61.495 39.5521 60.0496C42.6371 50.3714 50.281 42.7278 59.9575 39.6453C61.4029 39.1842 61.4029 37.1474 59.9575 36.6863C50.2788 33.6013 42.6371 25.9577 39.5521 16.2796C39.091 14.8343 37.0542 14.8343 36.5929 16.2796C33.5078 25.9577 25.864 33.6013 16.1876 36.6863C14.7422 37.1451 14.7422 39.1842 16.1876 39.6453Z" fill="white"/>
</svg>
