<svg width="61" height="36" viewBox="0 0 61 36" fill="none" xmlns="http://www.w3.org/2000/svg">
<path fill-rule="evenodd" clip-rule="evenodd" d="M57.6059 18.2649L55.7729 20.1262L42.1097 34H15.79L4.16669 10.8288L2.98114 8.46527L5.35748 7.30566L11.116 4.49568L13.4862 3.33911L14.623 5.71887L27.347 32.3565L47.1907 11.7076L49.0273 9.79636L50.9138 11.6586L55.7469 16.4297L57.6059 18.2649Z" fill="#FFA3B0"/>
<path d="M55.7729 20.1262L54.348 18.7228L54.348 18.7228L55.7729 20.1262ZM57.6059 18.2649L59.0309 19.6683L60.4326 18.245L59.011 16.8416L57.6059 18.2649ZM42.1097 34V36H42.9471L43.5347 35.4034L42.1097 34ZM15.79 34L14.0023 34.8968L14.5557 36H15.79V34ZM4.16669 10.8288L2.37899 11.7255L2.37901 11.7256L4.16669 10.8288ZM2.98114 8.46527L2.10404 6.66786L0.286848 7.55461L1.19343 9.36199L2.98114 8.46527ZM5.35748 7.30566L4.4804 5.50824L4.48038 5.50825L5.35748 7.30566ZM11.116 4.49568L11.9931 6.2931L11.116 4.49568ZM13.4862 3.33911L15.2909 2.47704L14.4216 0.657258L12.6091 1.54168L13.4862 3.33911ZM14.623 5.71887L16.4277 4.85683L16.4277 4.85681L14.623 5.71887ZM27.347 32.3565L25.5423 33.2185L26.7874 35.8251L28.789 33.7423L27.347 32.3565ZM47.1907 11.7076L48.6327 13.0934L48.6328 13.0934L47.1907 11.7076ZM49.0273 9.79636L50.4324 8.37303L48.9898 6.94898L47.5853 8.41058L49.0273 9.79636ZM50.9138 11.6586L52.3189 10.2353L52.3189 10.2353L50.9138 11.6586ZM55.7469 16.4297L57.152 15.0064L57.152 15.0064L55.7469 16.4297ZM57.1979 21.5295L59.0309 19.6683L56.1809 16.8616L54.348 18.7228L57.1979 21.5295ZM43.5347 35.4034L57.1979 21.5295L54.348 18.7228L40.6847 32.5966L43.5347 35.4034ZM15.79 36H42.1097V32H15.79V36ZM2.37901 11.7256L14.0023 34.8968L17.5777 33.1032L5.95438 9.93206L2.37901 11.7256ZM1.19343 9.36199L2.37899 11.7255L5.9544 9.93209L4.76885 7.56855L1.19343 9.36199ZM4.48038 5.50825L2.10404 6.66786L3.85824 10.2627L6.23458 9.10308L4.48038 5.50825ZM10.2389 2.69826L4.4804 5.50824L6.23456 9.10309L11.9931 6.2931L10.2389 2.69826ZM12.6091 1.54168L10.2389 2.69826L11.9931 6.2931L14.3633 5.13653L12.6091 1.54168ZM16.4277 4.85681L15.2909 2.47704L11.6816 4.20117L12.8183 6.58094L16.4277 4.85681ZM29.1517 31.4944L16.4277 4.85683L12.8183 6.58091L25.5423 33.2185L29.1517 31.4944ZM45.7486 10.3218L25.9049 30.9707L28.789 33.7423L48.6327 13.0934L45.7486 10.3218ZM47.5853 8.41058L45.7486 10.3218L48.6328 13.0934L50.4694 11.1821L47.5853 8.41058ZM52.3189 10.2353L50.4324 8.37303L47.6223 11.2197L49.5088 13.0819L52.3189 10.2353ZM57.152 15.0064L52.3189 10.2353L49.5088 13.0819L54.3419 17.853L57.152 15.0064ZM59.011 16.8416L57.152 15.0064L54.3418 17.853L56.2009 19.6882L59.011 16.8416Z" fill="#FFA3B0"/>
</svg>
