<svg width="96" height="96" viewBox="0 0 96 96" fill="none" xmlns="http://www.w3.org/2000/svg">
<path fill-rule="evenodd" clip-rule="evenodd" d="M48 0C21.4903 0 0 21.4903 0 48C0 74.5097 21.4903 96 48 96C74.5097 96 96 74.5097 96 48C96 21.4903 74.5097 0 48 0ZM34.2351 73.8906C35.8315 75.4176 38.3635 75.3613 39.8906 73.7649L37 71C39.8906 73.7649 39.8906 73.7648 39.8907 73.7647L39.8912 73.7643L39.893 73.7623L39.9003 73.7547L39.9293 73.7244L40.0432 73.6053L40.4835 73.145L42.1199 71.4343L47.6688 65.6332L61.8906 50.7649C63.3698 49.2184 63.3698 46.7816 61.8906 45.2351L47.6688 30.3668L42.1199 24.5658L40.4835 22.855L40.0432 22.3947L39.9293 22.2756L39.9003 22.2453L39.893 22.2377L39.8912 22.2357L39.8907 22.2353C39.8906 22.2352 39.8906 22.2351 37 25L39.8906 22.2351C38.3635 20.6387 35.8315 20.5824 34.2351 22.1094C32.6387 23.6365 32.5824 26.1685 34.1094 27.7649L37 25C34.1094 27.7649 34.1095 27.765 34.1096 27.7651L34.1101 27.7655L34.1119 27.7675L34.1192 27.7751L34.1482 27.8054L34.2621 27.9245L34.7024 28.3848L36.3388 30.0955L41.8876 35.8966L53.4648 48L41.8876 60.1034L36.3388 65.9045L34.7024 67.6152L34.2621 68.0755L34.1482 68.1946L34.1192 68.2249L34.1119 68.2325L34.1101 68.2345L34.1096 68.2349C34.1095 68.235 34.1094 68.2351 37 71L34.1094 68.2351C32.5824 69.8315 32.6387 72.3635 34.2351 73.8906Z" fill="white"/>
</svg>
