<svg width="96" height="96" viewBox="0 0 96 96" fill="none" xmlns="http://www.w3.org/2000/svg">
<path fill-rule="evenodd" clip-rule="evenodd" d="M48 96C74.5096 96 96 74.5097 96 48C96 21.4903 74.5096 0 48 0C21.4904 0 0 21.4903 0 48C0 74.5097 21.4904 96 48 96ZM61.7649 22.1094C60.1685 20.5824 57.6365 20.6387 56.1095 22.2351L59 25C56.1095 22.2351 56.1094 22.2352 56.1089 22.2357L56.1069 22.2377L56.0997 22.2453L56.0707 22.2756L55.9568 22.3947L55.5165 22.855L53.8801 24.5657L48.3313 30.3668L34.1094 45.2351C32.6302 46.7816 32.6302 49.2184 34.1094 50.7649L48.3313 65.6332L53.8801 71.4343L55.5165 73.145L55.9568 73.6053L56.0707 73.7244L56.0997 73.7547L56.1069 73.7623L56.1089 73.7643C56.1094 73.7648 56.1095 73.7649 59 71L56.1095 73.7649C57.6365 75.3613 60.1685 75.4176 61.7649 73.8906C63.3613 72.3636 63.4176 69.8315 61.8905 68.2351L61.8881 68.2325L61.8809 68.2249L61.8518 68.1946L61.7379 68.0755L61.2976 67.6152L59.6613 65.9044L54.1124 60.1034L42.5353 48L54.1124 35.8966L59.6613 30.0956L61.2976 28.3848L61.7379 27.9245L61.8518 27.8054L61.8809 27.7751L61.8881 27.7675L61.8899 27.7655C61.8901 27.7654 61.8903 27.7652 61.7958 27.6747L61.8905 27.7649C63.4176 26.1685 63.3613 23.6364 61.7649 22.1094Z" fill="white"/>
</svg>
