<svg width="36" height="36" viewBox="0 0 36 36" fill="none" xmlns="http://www.w3.org/2000/svg">
<circle cx="18" cy="18" r="18" fill="#2A2F36"/>
<path d="M26.8877 11.9326C26.6621 11.3516 26.3613 10.8594 25.8691 10.3672C25.377 9.875 24.8848 9.57422 24.3037 9.34863C23.7432 9.12988 23.0937 8.97949 22.1572 8.93848C21.2139 8.89746 20.9131 8.88379 18.5068 8.88379C16.1006 8.88379 15.7998 8.89062 14.8564 8.93848C13.9131 8.97949 13.2705 9.12988 12.71 9.34863C12.1289 9.57422 11.6367 9.875 11.1445 10.3672C10.6523 10.8594 10.3516 11.3516 10.126 11.9326C9.90723 12.4932 9.75684 13.1426 9.71582 14.0791C9.6748 15.0225 9.66113 15.3232 9.66113 17.7295C9.66113 20.1357 9.66797 20.4365 9.71582 21.3799C9.75684 22.3232 9.90723 22.9658 10.126 23.5264C10.3516 24.1074 10.6523 24.5996 11.1445 25.0918C11.6367 25.584 12.1289 25.8848 12.71 26.1103C13.2705 26.3291 13.9199 26.4795 14.8564 26.5205C15.7998 26.5615 16.1006 26.5752 18.5068 26.5752C20.9131 26.5752 21.2139 26.5684 22.1572 26.5205C23.1006 26.4795 23.7432 26.3291 24.3037 26.1103C24.8848 25.8848 25.377 25.584 25.8691 25.0918C26.3613 24.5996 26.6621 24.1074 26.8877 23.5264C27.1064 22.9658 27.2568 22.3164 27.2978 21.3799C27.3389 20.4365 27.3525 20.1357 27.3525 17.7295C27.3525 15.3232 27.3457 15.0225 27.2978 14.0791C27.2568 13.1357 27.1064 12.4932 26.8877 11.9326ZM25.7051 21.3047C25.6641 22.166 25.5205 22.6377 25.3975 22.9453C25.2402 23.3555 25.042 23.6562 24.7344 23.9639C24.4268 24.2715 24.1328 24.4629 23.7158 24.627C23.4014 24.75 22.9365 24.8936 22.0752 24.9346C21.1387 24.9756 20.8652 24.9893 18.5 24.9893C16.1348 24.9893 15.8545 24.9824 14.9248 24.9346C14.0635 24.8936 13.5918 24.75 13.2842 24.627C12.874 24.4697 12.5732 24.2715 12.2656 23.9639C11.958 23.6562 11.7666 23.3623 11.6025 22.9453C11.4795 22.6309 11.3359 22.166 11.2949 21.3047C11.2539 20.3682 11.2402 20.0879 11.2402 17.7295C11.2402 15.3711 11.2471 15.084 11.2949 14.1543C11.3359 13.293 11.4795 12.8213 11.6025 12.5137C11.7598 12.1035 11.958 11.8027 12.2656 11.4951C12.5732 11.1875 12.8672 10.9961 13.2842 10.832C13.5986 10.709 14.0635 10.5654 14.9248 10.5244C15.8613 10.4834 16.1416 10.4697 18.5 10.4697C20.8584 10.4697 21.1455 10.4766 22.0752 10.5244C22.9365 10.5654 23.4082 10.709 23.7158 10.832C24.126 10.9893 24.4268 11.1875 24.7344 11.4951C25.042 11.8027 25.2334 12.0967 25.3975 12.5137C25.5205 12.8281 25.6641 13.293 25.7051 14.1543C25.7461 15.0908 25.7598 15.3711 25.7598 17.7295C25.7598 20.0879 25.7461 20.375 25.7051 21.3047Z" fill="url(#paint0_radial_42_29)"/>
<path d="M18.5 13.1836C15.9912 13.1836 13.9541 15.2207 13.9541 17.7295C13.9541 20.2383 15.9912 22.2754 18.5 22.2754C21.0088 22.2754 23.0459 20.2383 23.0459 17.7295C23.0459 15.2207 21.0088 13.1836 18.5 13.1836ZM18.5 20.6826C16.873 20.6826 15.5469 19.3633 15.5469 17.7295C15.5469 16.1025 16.8662 14.7764 18.5 14.7764C20.1338 14.7764 21.4531 16.0957 21.4531 17.7295C21.4531 19.3564 20.127 20.6826 18.5 20.6826Z" fill="url(#paint1_radial_42_29)"/>
<path d="M23.2236 14.0654C23.8088 14.0654 24.2832 13.591 24.2832 13.0059C24.2832 12.4207 23.8088 11.9463 23.2236 11.9463C22.6384 11.9463 22.1641 12.4207 22.1641 13.0059C22.1641 13.591 22.6384 14.0654 23.2236 14.0654Z" fill="url(#paint2_radial_42_29)"/>
<defs>
<radialGradient id="paint0_radial_42_29" cx="0" cy="0" r="1" gradientUnits="userSpaceOnUse" gradientTransform="translate(14.7931 26.5382) scale(17.8492)">
<stop stop-color="#FFD776"/>
<stop offset="0.2463" stop-color="#F3A554"/>
<stop offset="0.3793" stop-color="#F15C3C"/>
<stop offset="0.5394" stop-color="#D94867"/>
<stop offset="0.6995" stop-color="#C32F87"/>
<stop offset="0.9122" stop-color="#7D63A7"/>
<stop offset="0.9852" stop-color="#5C6CB3"/>
</radialGradient>
<radialGradient id="paint1_radial_42_29" cx="0" cy="0" r="1" gradientUnits="userSpaceOnUse" gradientTransform="translate(16.5965 22.2528) scale(9.16582)">
<stop stop-color="#FFD776"/>
<stop offset="0.2463" stop-color="#F3A554"/>
<stop offset="0.3793" stop-color="#F15C3C"/>
<stop offset="0.607" stop-color="#D94867"/>
<stop offset="0.8346" stop-color="#C32F87"/>
<stop offset="0.9577" stop-color="#7D63A7"/>
<stop offset="1" stop-color="#5C6CB3"/>
</radialGradient>
<radialGradient id="paint2_radial_42_29" cx="0" cy="0" r="1" gradientUnits="userSpaceOnUse" gradientTransform="translate(22.7808 14.0607) scale(2.1419)">
<stop stop-color="#5F6DB3"/>
<stop offset="1" stop-color="#5C6CB3"/>
</radialGradient>
</defs>
</svg>
