<svg width="36" height="36" viewBox="0 0 36 36" fill="none" xmlns="http://www.w3.org/2000/svg">
<circle cx="18" cy="18" r="18" fill="#2A2F36"/>
<path d="M14.4973 12.6181C14.4973 12.7459 14.4973 12.8737 14.4977 13.0015C14.4981 13.3231 14.4927 13.6448 14.5044 13.9664C14.5099 14.0373 14.5136 14.109 14.5314 14.1781C14.5512 14.2576 14.5899 14.3337 14.6479 14.3924C14.7025 14.4497 14.7741 14.4878 14.8522 14.501C14.9117 14.5391 14.9628 14.5886 15.0125 14.6386L15.0723 14.6994V18.5352H17.0363L16.9978 14.1679C16.9582 14.0907 16.9196 14.0131 16.8822 13.9349C16.8109 13.7871 16.7398 13.6389 16.6533 13.4994C16.4578 13.1888 16.1751 12.9427 15.8405 12.7918C15.7873 12.7679 15.7341 12.7451 15.6793 12.7251C15.4759 12.6503 15.2629 12.6064 15.0495 12.5719C14.9778 12.5601 14.9061 12.5497 14.8343 12.5377L14.4973 12.483V12.6181ZM10.126 12.8431L10.1347 14.7638C10.1382 15.4433 10.1419 16.1227 10.1465 16.8023C10.1493 17.2217 10.1526 17.6411 10.1552 18.0608L10.1584 18.4976L10.4666 18.5052L10.4866 18.5056L10.5648 18.5078L10.5748 18.508L10.6628 18.5106C10.9414 18.5189 11.22 18.5285 11.4989 18.5302H11.5089C11.541 18.5302 11.5734 18.5287 11.6058 18.5274C11.6803 18.5237 11.7555 18.5124 11.8246 18.4833C11.8533 18.4713 11.8807 18.4565 11.9061 18.4389C11.9963 18.4911 12.0909 18.5365 12.1904 18.5678C12.2589 18.5902 12.3286 18.6087 12.399 18.6223C12.6142 18.6643 12.8358 18.6654 13.0521 18.633C13.2538 18.6022 13.4505 18.5448 13.6371 18.4624C13.7319 18.4218 13.8236 18.3733 13.9105 18.3177C14.1564 18.1586 14.3672 17.9508 14.5299 17.7072C14.5614 17.6607 14.5916 17.6135 14.6179 17.5638C14.6879 17.4327 14.7357 17.2899 14.7613 17.1437C14.8213 16.8227 14.83 16.4939 14.8026 16.169C14.7943 16.0613 14.7805 15.9541 14.7613 15.8478C14.7268 15.6626 14.67 15.4801 14.5809 15.3132C14.5515 15.2594 14.52 15.2068 14.4866 15.1554C14.3458 14.9372 14.1739 14.7375 13.9694 14.5767C13.9353 14.5493 13.8998 14.5238 13.8629 14.5004C13.7017 14.398 13.5217 14.3276 13.3374 14.2794C13.0438 14.2006 12.7365 14.187 12.4371 14.2394C12.3158 14.2613 12.1965 14.2952 12.0822 14.3415V12.7275H10.1256L10.126 12.8431ZM23.888 14.2029C23.7557 14.205 23.6237 14.2194 23.4938 14.2442C23.2433 14.2918 23.0025 14.3805 22.781 14.5067C22.5039 14.6683 22.2733 14.8988 22.1116 15.1758C22.0616 15.261 22.0188 15.3501 21.9825 15.442C21.908 15.6285 21.8591 15.8245 21.8311 16.0232C21.7724 15.7647 21.6655 15.5196 21.5159 15.3008C21.378 15.098 21.2085 14.9185 21.0139 14.7692C20.5944 14.4503 20.0874 14.2673 19.5609 14.2448C19.4681 14.2417 19.3753 14.2439 19.2827 14.2513C18.8371 14.2888 18.4097 14.4457 18.0457 14.7055C17.8453 14.8485 17.6695 15.023 17.525 15.2223C17.3867 15.4117 17.2837 15.6245 17.2208 15.8504C17.1956 15.9436 17.1784 16.0392 17.1697 16.1355C17.1545 16.3131 17.1404 16.4913 17.148 16.6695C17.1497 16.7179 17.1536 16.7664 17.1612 16.8144C17.1812 16.9433 17.2227 17.0678 17.2738 17.1876C17.3038 17.2586 17.337 17.3282 17.3714 17.3973C17.5567 17.7356 17.813 18.0298 18.1229 18.2596C18.3058 18.3921 18.5098 18.4926 18.7264 18.5567C18.9452 18.6232 19.1734 18.6567 19.4018 18.6641C19.4905 18.6665 19.5794 18.6641 19.6678 18.6582C19.9394 18.6414 20.2067 18.5815 20.4595 18.4809C20.4971 18.4661 20.5339 18.4496 20.5699 18.4313C20.7286 18.35 20.8774 18.2505 21.0157 18.1379C21.1415 18.0358 21.2584 17.9228 21.3673 17.8026C21.437 17.725 21.5005 17.6416 21.557 17.5535C21.6794 17.3628 21.7692 17.1531 21.8228 16.9329C21.8474 17.1552 21.8989 17.376 21.9908 17.5805C22.0484 17.7087 22.1223 17.8302 22.2125 17.9382C22.3341 18.0828 22.4778 18.2073 22.6382 18.3072C22.8038 18.4131 22.9826 18.4967 23.1652 18.5693C23.2443 18.6002 23.3264 18.6228 23.4097 18.6384V20.4585L23.7168 20.4455L23.7476 20.4442L23.7785 20.4429L23.7885 20.4424L23.8548 20.44C24.1408 20.4292 24.4268 20.4211 24.7123 20.4029C24.9077 20.3885 25.1022 20.344 25.2791 20.2586C25.3278 20.2347 25.3765 20.2101 25.4236 20.1832C25.6071 20.0771 25.7749 19.9459 25.9222 19.7935C25.9415 19.7744 25.9593 19.7542 25.9765 19.7331C26.096 19.5914 26.2012 19.4358 26.2742 19.2647C26.3068 19.1887 26.3322 19.1094 26.3509 19.0287C26.4009 18.819 26.4213 18.6039 26.4322 18.3892C26.4379 18.2798 26.4416 18.1705 26.4455 18.0612C26.4611 17.3658 26.4568 16.6701 26.457 15.9745C26.457 15.8041 26.4574 15.6337 26.4572 15.4633V14.28H24.56V14.33C24.3468 14.2428 24.1183 14.1996 23.888 14.2029ZM19.592 16.0625C19.6144 16.0634 19.6376 16.0645 19.6585 16.0734C19.6659 16.0781 19.6717 16.0849 19.6787 16.0903C19.7547 16.1572 19.8269 16.2294 19.8899 16.3087C19.8984 16.3239 19.8999 16.3418 19.9014 16.3587C19.9045 16.4028 19.9004 16.4467 19.8969 16.4904C19.8811 16.6033 19.823 16.706 19.7343 16.7777C19.6906 16.8129 19.6396 16.839 19.585 16.8518C19.515 16.8714 19.4394 16.8649 19.3714 16.8401C19.2845 16.809 19.2104 16.75 19.1606 16.6723C19.1422 16.6421 19.1278 16.6096 19.1178 16.5756C19.0923 16.4829 19.1011 16.3841 19.1428 16.2974C19.158 16.2657 19.1773 16.2361 19.1997 16.2092C19.2384 16.1536 19.2927 16.1075 19.357 16.0849C19.3779 16.0775 19.3999 16.074 19.4216 16.0712C19.4702 16.0646 19.5192 16.0617 19.5683 16.0625C19.5761 16.0621 19.5839 16.0623 19.592 16.0625ZM24.2042 16.0668C24.2403 16.0668 24.2762 16.0718 24.3103 16.0831C24.4094 16.1153 24.4941 16.1905 24.5367 16.2857C24.5504 16.3139 24.5617 16.3428 24.5691 16.3733C24.5871 16.4456 24.5867 16.5237 24.5617 16.5943C24.5517 16.6221 24.5376 16.6486 24.5198 16.6725L24.5141 16.6799C24.4677 16.7382 24.4075 16.784 24.339 16.8133C24.2911 16.8347 24.2408 16.85 24.1892 16.859C24.1551 16.8581 24.1215 16.8507 24.0901 16.8373C24.0543 16.8231 24.0192 16.8071 23.9849 16.7894C23.926 16.7502 23.8806 16.6938 23.855 16.6278C23.8202 16.543 23.8131 16.4495 23.8346 16.3604C23.845 16.3185 23.8628 16.2785 23.8876 16.2431C23.945 16.1518 24.0425 16.0866 24.1492 16.0705C24.1675 16.0677 24.186 16.0664 24.2042 16.0668ZM12.5116 16.1299C12.5512 16.1301 12.5907 16.1375 12.627 16.1529C12.7102 16.1877 12.7791 16.2568 12.8117 16.3411C12.8289 16.3865 12.8345 16.4356 12.8315 16.4837C12.8271 16.5546 12.8029 16.6229 12.7617 16.6808C12.7161 16.7281 12.6595 16.7634 12.597 16.7836C12.5259 16.8077 12.4497 16.8164 12.3749 16.8092C12.3166 16.8006 12.2639 16.7696 12.228 16.7229C12.1818 16.6675 12.1538 16.5992 12.1478 16.5273C12.139 16.446 12.1556 16.3638 12.1952 16.2922C12.2202 16.2487 12.2558 16.2107 12.2997 16.1857C12.3634 16.1481 12.4377 16.129 12.5116 16.1299Z" fill="white"/>
<path d="M18.0968 27.7236C17.999 27.6315 17.66 26.8956 17.0215 25.3948L16.0901 23.1924H13.3185C11.7143 23.1924 10.4149 23.1696 10.2367 23.135C9.77661 23.0488 9.15551 22.721 8.82191 22.3875C8.48289 22.0484 8.15517 21.456 8.06302 21.019C8.01717 20.8121 8 19.2135 8 15.9304C8 11.8132 8.0113 11.0945 8.08606 10.8013C8.36206 9.74317 9.24178 8.93234 10.2999 8.76566C10.8172 8.6796 25.7731 8.6796 26.2849 8.76566C27.3141 8.92669 28.1652 9.66276 28.4699 10.6403C28.5792 11.0026 28.585 11.1692 28.585 15.913C28.585 19.0007 28.5618 20.8984 28.5216 21.0592C28.3664 21.7435 27.7799 22.5024 27.159 22.836C26.5207 23.1752 26.3653 23.1924 23.3178 23.1924H20.5521L19.6207 25.3948C19.103 26.6022 18.6432 27.6315 18.5912 27.6832C18.4189 27.8557 18.2579 27.8672 18.0968 27.7236ZM25.2498 19.8863C25.4223 19.7885 25.6466 19.6044 25.7501 19.4664C26.0893 19.0181 26.1123 18.8514 26.1123 16.626V14.6249H24.9049V14.9872L24.7784 14.8722C24.462 14.5847 24.0367 14.4869 23.5479 14.5847C22.6278 14.7744 22.1449 15.4301 22.1449 16.488C22.1449 17.3736 22.3863 17.8163 23.0418 18.1384C23.3352 18.282 23.4847 18.3222 23.7433 18.3222C24.1573 18.3166 24.5024 18.2244 24.7036 18.0636L24.8645 17.9369L24.8243 18.1901C24.7439 18.6904 24.4794 18.9377 24.0193 18.9377H23.7548V20.099L24.347 20.076C24.8647 20.0586 24.9681 20.0358 25.2498 19.8863ZM13.5543 18.121C13.8821 17.9715 14.1983 17.6494 14.3478 17.3332C14.5088 16.9709 14.5147 16.1142 14.3593 15.6657C14.2443 15.3266 13.8936 14.9009 13.6117 14.7516C13.0254 14.4467 12.2778 14.4984 11.8697 14.8722L11.7373 14.9874V13.0726H10.4725L10.4838 15.6196L10.5012 18.1612L11.1221 18.1786C11.7086 18.1959 11.7373 18.1901 11.7373 18.0749C11.7373 17.9312 11.7547 17.9312 12.0192 18.1038C12.4217 18.3739 13.008 18.3798 13.5543 18.1212V18.121ZM20.2877 18.1786C20.6384 18.0521 21.1156 17.6439 21.3054 17.3045C21.9321 16.212 21.2191 14.8896 19.8621 14.6249C19.0111 14.4582 18.091 14.8722 17.6887 15.6083C17.562 15.8497 17.5161 16.0108 17.4987 16.3559C17.4759 16.741 17.4931 16.8329 17.6311 17.1435C17.7978 17.5172 18.1772 17.9256 18.5223 18.1038C19.0226 18.3624 19.7126 18.3913 20.2877 18.1786ZM16.6707 16.2177L16.6536 14.2513L16.4639 13.866C16.1994 13.3314 15.7795 13.0437 15.0895 12.9287L14.8424 12.8885V13.5268C14.8424 14.0729 14.8539 14.165 14.9343 14.165C14.9861 14.165 15.1125 14.2513 15.2219 14.3606L15.4174 14.556V18.1901H16.6879L16.6707 16.2177Z" fill="#42D31A"/>
<path d="M23.8869 17.1263C23.5074 16.9652 23.3579 16.4478 23.5822 16.0797C23.893 15.5681 24.6173 15.6139 24.8588 16.1601C25.037 16.5686 24.8588 16.9881 24.4276 17.1493C24.2146 17.2297 24.111 17.2241 23.8869 17.1263ZM12.0939 17.063C11.6684 16.7696 11.7142 16.0796 12.1743 15.8612C12.8067 15.5622 13.4106 16.189 13.0886 16.8101C12.9275 17.1263 12.3812 17.2643 12.0939 17.063ZM19.1145 17.0976C19.0289 17.0463 18.9546 16.9781 18.8963 16.8971C18.8379 16.8161 18.7967 16.7241 18.7752 16.6267C18.7537 16.5292 18.7523 16.4284 18.7711 16.3304C18.7899 16.2323 18.8285 16.1392 18.8846 16.0566C19.0512 15.8095 19.2294 15.7176 19.5515 15.7176C19.7643 15.7176 19.8332 15.7463 20.0231 15.9416C20.2128 16.1316 20.2472 16.2005 20.2472 16.4132C20.2472 17.0285 19.6206 17.4079 19.1145 17.0976Z" fill="#42D31A"/>
</svg>
