<svg xmlns="http://www.w3.org/2000/svg" width="32" height="32" viewBox="0 0 32 32" fill="trans" class="slide-svg1"><path d="M22.6572 24.4233C27.5809 20.7812 28.6199 13.8372 24.9778 8.91346C21.3356 3.98973 14.3917 2.95077 9.46793 6.59288C4.5442 10.235 3.50525 17.179 7.14735 22.1027C10.7895 27.0264 17.7334 28.0654 22.6572 24.4233Z" fill="#00A791"></path> <path d="M11.1737 19.6566C13.9852 18.6988 17.1107 19.1668 19.5184 20.9049C19.8781 21.1644 20.3569 20.8103 20.214 20.3903C19.2563 17.5789 19.7241 14.4529 21.4627 12.0457C21.7223 11.686 21.3682 11.2072 20.9482 11.3501C18.1366 12.3079 15.0112 11.8399 12.6031 10.1013C12.2434 9.84171 11.7646 10.1959 11.9075 10.6158C12.8652 13.4273 12.3974 16.5533 10.6592 18.961C10.3992 19.3202 10.7537 19.7995 11.1737 19.6566Z" fill="white"></path></svg>