<svg width="36" height="36" viewBox="0 0 36 36" fill="none" xmlns="http://www.w3.org/2000/svg">
<circle cx="18" cy="18" r="18" fill="#2A2F36"/>
<path fill-rule="evenodd" clip-rule="evenodd" d="M8.08912 14.8592C8.20892 12.9991 9.65025 11.4964 11.5027 11.298C13.4242 11.1045 15.4664 11 17.5833 11C19.7003 11 21.7425 11.1045 23.664 11.299C25.5164 11.4964 26.9577 12.9991 27.0775 14.8592C27.136 15.7754 27.1667 16.7117 27.1667 17.6623C27.1667 18.613 27.136 19.5493 27.0775 20.4655C26.9577 22.3256 25.5164 23.8283 23.664 24.0266C21.7425 24.2202 19.7003 24.3247 17.5833 24.3247C15.4664 24.3247 13.4242 24.2202 11.5027 24.0257C9.65025 23.8282 8.20892 22.3256 8.08912 20.4655C8.03067 19.5493 8 18.613 8 17.6623C8 16.7117 8.03067 15.7754 8.08912 14.8592Z" fill="#FF0000"/>
<path fill-rule="evenodd" clip-rule="evenodd" d="M20.5111 17.6623L15.8066 20.5325V14.7921L20.5111 17.6623Z" fill="white"/>
</svg>
